<?xml version="1.0" encoding="UTF-8" standalone="no"?>
<svg
   width="208mm"
   height="157.99999999999994mm"
   viewBox="-101 -58.249999999999986 208 157.99999999999994"
   version="1.1"
   id="svg1"
   sodipodi:docname="boite_top.svg"
   inkscape:version="1.4.4 (dcaf3e7, 2026-05-05)"
   xmlns:inkscape="http://www.inkscape.org/namespaces/inkscape"
   xmlns:sodipodi="http://sodipodi.sourceforge.net/DTD/sodipodi-0.dtd"
   xmlns="http://www.w3.org/2000/svg"
   xmlns:svg="http://www.w3.org/2000/svg"
   xmlns:rdf="http://www.w3.org/1999/02/22-rdf-syntax-ns#"
   xmlns:cc="http://creativecommons.org/ns#"
   xmlns:dc="http://purl.org/dc/elements/1.1/">
  <defs
     id="defs1" />
  <sodipodi:namedview
     id="namedview1"
     pagecolor="#ffffff"
     bordercolor="#000000"
     borderopacity="0.25"
     inkscape:showpageshadow="2"
     inkscape:pageopacity="0.0"
     inkscape:pagecheckerboard="0"
     inkscape:deskcolor="#d1d1d1"
     inkscape:document-units="mm"
     inkscape:zoom="1.2944488"
     inkscape:cx="393.21755"
     inkscape:cy="298.58268"
     inkscape:window-width="1920"
     inkscape:window-height="991"
     inkscape:window-x="-9"
     inkscape:window-y="-9"
     inkscape:window-maximized="1"
     inkscape:current-layer="svg1" />
  <title
     id="title1">svgOutput</title>
  <desc
     id="desc1">made with tinkercad</desc>
  <path
     d="M 81.96800231933594 -45.344001770019524 L 81.91999816894531 -45.36098861694335 L 81.79000091552734 -45.40700149536132 L 81.54199981689453 -45.48400115966796 L 81.29100036621094 -45.55199813842773 L 81.03600311279297 -45.61199951171874 L 80.77899932861328 -45.66400146484374 L 80.51799774169922 -45.706001281738274 L 80.25399780273438 -45.73899841308593 L 79.98699951171875 -45.76300048828124 L 79.91999816894531 -45.76699829101562 L 79.87200164794922 -45.769599914550774 L 79.71700286865234 -45.77799987792968 L 79.44499969482422 -45.78200149536132 L 79.1719970703125 -45.77799987792968 L 78.9000015258789 -45.76300048828124 L 78.62999725341797 -45.73899841308593 L 78.36199951171875 -45.706001281738274 L 78.09600067138672 -45.66400146484374 L 77.87200164794922 -45.62099838256835 L 77.83200073242188 -45.61299896240234 L 77.8239974975586 -45.61116790771484 L 77.56999969482422 -45.55300140380859 L 77.31099700927734 -45.48400115966796 L 77.05400085449219 -45.40700149536132 L 76.80000305175781 -45.3219985961914 L 76.55000305175781 -45.22800064086913 L 76.302001953125 -45.12699890136718 L 76.14306640625 -45.05599975585937 L 76.05799865722656 -45.01800155639648 L 75.8239974975586 -44.903999328613274 L 75.81800079345703 -44.90100097656249 L 75.58100128173828 -44.77700042724609 L 75.4280014038086 -44.68999862670898 L 75.3489990234375 -44.645000457763665 L 75.12000274658203 -44.50600051879882 L 74.89600372314453 -44.36100006103515 L 74.677001953125 -44.20800018310546 L 74.46199798583984 -44.04999923706054 L 74.25299835205078 -43.8839988708496 L 74.0479965209961 -43.7120018005371 L 73.8489990234375 -43.5349998474121 L 73.72799682617188 -43.42023849487304 L 73.65499877929688 -43.351001739501946 L 73.46700286865234 -43.160999298095696 L 73.28500366210938 -42.96599960327148 L 73.1337661743164 -42.79328536987304 L 73.10900115966797 -42.76499938964843 L 73.00800323486328 -42.64199829101562 L 72.93900299072266 -42.55899810791015 L 72.7760009765625 -42.3479995727539 L 72.61900329589844 -42.131999969482415 L 72.46900177001953 -41.91199874877929 L 72.32599639892578 -41.6860008239746 L 72.19100189208984 -41.456001281738274 L 72.06199645996094 -41.222000122070305 L 71.94200134277344 -40.98400115966796 L 71.93083953857422 -40.95999908447265 L 71.92693328857422 -40.95159912109374 L 71.8290023803711 -40.74100112915038 L 71.76599884033203 -40.594001770019524 L 71.72799682617188 -40.50400161743163 L 71.7239990234375 -40.49499893188476 L 71.62699890136719 -40.24599838256835 L 71.53800201416016 -39.99200057983398 L 71.45800018310547 -39.73600006103515 L 71.38700103759766 -39.476001739501946 L 71.32499694824219 -39.21400070190429 L 71.27100372314453 -38.94800186157226 L 71.26509094238281 -38.91199874877929 L 71.22699737548828 -38.680000305175774 L 71.20999908447266 -38.546001434326165 L 71.19300079345703 -38.4099998474121 L 71.16799926757812 -38.13700103759765 L 71.15299987792969 -37.86199951171874 L 71.14800262451172 -37.58499908447265 L 71.15299987792969 -37.30899810791015 L 71.16799926757812 -37.0349998474121 L 71.1837158203125 -36.86399841308593 L 71.19300079345703 -36.76300048828124 L 71.22699737548828 -36.498001098632805 L 71.22699737548828 -36.493999481201165 L 71.27200317382812 -36.22800064086913 L 71.32499694824219 -35.96599960327148 L 71.38700103759766 -35.706001281738274 L 71.45899963378906 -35.450000762939446 L 71.53900146484375 -35.1969985961914 L 71.62699890136719 -34.94800186157226 L 71.67904663085938 -34.81600189208984 L 71.7239990234375 -34.70199966430663 L 71.72799682617188 -34.693000793457024 L 71.8290023803711 -34.46099853515624 L 71.86203002929688 -34.39142990112304 L 71.94200134277344 -34.2229995727539 L 72.06300354003906 -33.99000167846679 L 72.19100189208984 -33.761001586914055 L 72.3270034790039 -33.535999298095696 L 72.47000122070312 -33.31700134277343 L 72.61900329589844 -33.10200119018554 L 72.7760009765625 -32.89199829101562 L 72.87471771240234 -32.76800155639648 L 72.94000244140625 -32.6860008239746 L 73.10900115966797 -32.48699951171874 L 73.18599700927734 -32.40200042724609 L 73.28600311279297 -32.291999816894524 L 73.46800231933594 -32.10300064086913 L 73.65599822998047 -31.920000076293938 L 73.72799682617188 -31.85359573364257 L 73.8489990234375 -31.742000579833977 L 74.04900360107422 -31.570999145507805 L 74.25299835205078 -31.4050006866455 L 74.46299743652344 -31.246000289916985 L 74.6780014038086 -31.093000411987298 L 74.89700317382812 -30.947000503540032 L 75.12100219726562 -30.80699920654296 L 75.2701416015625 -30.719999313354485 L 75.3489990234375 -30.673999786376946 L 75.58200073242188 -30.548000335693352 L 75.81800079345703 -30.42900085449218 L 75.8239974975586 -30.426000595092766 L 76.05899810791016 -30.316999435424798 L 76.3030014038086 -30.212999343872063 L 76.55000305175781 -30.11599922180175 L 76.8010025024414 -30.027000427246087 L 77.05500030517578 -29.94499969482421 L 77.31099700927734 -29.87199974060058 L 77.56999969482422 -29.80699920654296 L 77.8239974975586 -29.75077056884765 L 77.83200073242188 -29.7490005493164 L 77.87200164794922 -29.742000579833977 L 78.09600067138672 -29.70100021362304 L 78.36299896240234 -29.660999298095696 L 78.63099670410156 -29.628999710083 L 78.9010009765625 -29.606000900268548 L 79.1719970703125 -29.593000411987298 L 79.44499969482422 -29.587999343872063 L 79.71700286865234 -29.593000411987298 L 79.87200164794922 -29.600635528564446 L 79.91999816894531 -29.603000640869134 L 79.98699951171875 -29.606000900268548 L 80.25299835205078 -29.628999710083 L 80.51699829101562 -29.660999298095696 L 80.77799987792969 -29.70100021362304 L 81.03600311279297 -29.749999999999993 L 81.29000091552734 -29.80699920654296 L 81.54199981689453 -29.87199974060058 L 81.78900146484375 -29.94499969482421 L 81.91999816894531 -29.98891067504882 L 81.96800231933594 -30.004999160766594 L 82.03299713134766 -30.027000427246087 L 82.27300262451172 -30.11599922180175 L 82.50900268554688 -30.212999343872063 L 82.74099731445312 -30.316999435424798 L 82.96900177001953 -30.42900085449218 L 83.19200134277344 -30.548000335693352 L 83.41100311279297 -30.673999786376946 L 83.48501586914062 -30.719999313354485 L 83.625 -30.80699920654296 L 83.69400024414062 -30.853000640869134 L 83.83499908447266 -30.947000503540032 L 84.01599884033203 -31.076999664306634 L 84.03900146484375 -31.093000411987298 L 84.23899841308594 -31.246000289916985 L 84.43299865722656 -31.406000137329094 L 84.62200164794922 -31.570999145507805 L 84.80599975585938 -31.74300003051757 L 84.98400115966797 -31.920999526977532 L 85.15699768066406 -32.10400009155273 L 85.30162048339844 -32.268657684326165 L 85.322998046875 -32.29299926757812 L 85.41300201416016 -32.40200042724609 L 85.48400115966797 -32.48699951171874 L 85.63800048828125 -32.687000274658196 L 85.6968765258789 -32.76800155639648 L 85.78700256347656 -32.89199829101562 L 85.92900085449219 -33.10200119018554 L 86.01599884033203 -33.240554809570305 L 86.06400299072266 -33.31700134277343 L 86.19300079345703 -33.53699874877929 L 86.31500244140625 -33.76200103759765 L 86.3811264038086 -33.89367675781249 L 86.43000030517578 -33.99100112915038 L 86.53800201416016 -34.22399902343749 L 86.63400268554688 -34.450000762939446 L 86.63899993896484 -34.46099853515624 L 86.73300170898438 -34.70299911499023 L 86.77266693115234 -34.81600189208984 L 86.81900024414062 -34.94800186157226 L 86.89700317382812 -35.1969985961914 L 86.96800231933594 -35.450000762939446 L 87.03099822998047 -35.706001281738274 L 87.08699798583984 -35.96599960327148 L 87.13300323486328 -36.22900009155273 L 87.1702651977539 -36.48315811157226 L 87.1719970703125 -36.49499893188476 L 87.1719970703125 -36.498001098632805 L 87.2030029296875 -36.76300048828124 L 87.21080017089844 -36.86399841308593 L 87.2239990234375 -37.0349998474121 L 87.23799896240234 -37.30899810791015 L 87.24199676513672 -37.58499908447265 L 87.23799896240234 -37.86199951171874 L 87.2239990234375 -38.13700103759765 L 87.20470428466797 -38.38783645629882 L 87.2030029296875 -38.4099998474121 L 87.18699645996094 -38.546001434326165 L 87.1719970703125 -38.680000305175774 L 87.13910675048828 -38.91199874877929 L 87.13400268554688 -38.94800186157226 L 87.08699798583984 -39.213001251220696 L 87.03199768066406 -39.476001739501946 L 86.96800231933594 -39.735000610351555 L 86.89800262451172 -39.99200057983398 L 86.81900024414062 -40.24499893188476 L 86.73565673828125 -40.48726654052734 L 86.73300170898438 -40.49499893188476 L 86.69499969482422 -40.594001770019524 L 86.63899993896484 -40.74100112915038 L 86.54759979248047 -40.95999908447265 L 86.53800201416016 -40.98300170898437 L 86.43000030517578 -41.22100067138671 L 86.31500244140625 -41.45500183105468 L 86.19300079345703 -41.68500137329101 L 86.06400299072266 -41.910999298095696 L 86.01599884033203 -41.989578247070305 L 85.92900085449219 -42.131999969482415 L 85.78700256347656 -42.3479995727539 L 85.63899993896484 -42.55899810791015 L 85.5770034790039 -42.64199829101562 L 85.48400115966797 -42.76499938964843 L 85.3239974975586 -42.96500015258788 L 85.28736114501953 -43.00799942016601 L 85.15699768066406 -43.160999298095696 L 84.98500061035156 -43.34999847412109 L 84.80699920654297 -43.53400039672851 L 84.62300109863281 -43.7120018005371 L 84.43399810791016 -43.8839988708496 L 84.23899841308594 -44.048999786376946 L 84.04000091552734 -44.20800018310546 L 84.01599884033203 -44.226001739501946 L 83.83499908447266 -44.360000610351555 L 83.6259994506836 -44.50600051879882 L 83.41200256347656 -44.645000457763665 L 83.33699798583984 -44.68999862670898 L 83.19300079345703 -44.77600097656249 L 82.96900177001953 -44.9000015258789 L 82.74199676513672 -45.01699829101562 L 82.65898895263672 -45.05599975585937 L 82.51000213623047 -45.12599945068359 L 82.27400207519531 -45.22800064086913 L 82.03317260742188 -45.320930480957024 L 82.03299713134766 -45.320999145507805 L 81.96800231933594 -45.344001770019524 M 106 -26.499999999999993 L 103 -26.499999999999993 L 103 -12.999999999999996 L 106 -12.999999999999996 L 106 1.1102230246251565e-16 L 106 0.5 L 103 0.5 L 103 13.999999999999996 L 106 13.999999999999996 L 106 27.499999999999993 L 103 27.499999999999993 L 103 40.99999999999999 L 106 40.99999999999999 L 106 54.499999999999986 L 103 54.499999999999986 L 103 67.99999999999999 L 106 67.99999999999999 L 106 81.49999999999999 L 103 81.49999999999999 L 103 95.74999999999999 L 90.75 95.74999999999999 L 90.75 98.74999999999997 L 77.25 98.74999999999997 L 77.25 95.74999999999999 L 65.53600311279297 95.74999999999999 L 63.75 95.74999999999999 L 63.75 98.74999999999997 L 50.25 98.74999999999997 L 50.25 95.74999999999999 L 36.90800094604492 95.74999999999999 L 36.75 95.74999999999999 L 36.75 98.74999999999997 L 23.25 98.74999999999997 L 23.25 95.74999999999999 L 9.75 95.74999999999999 L 9.75 98.74999999999997 L 0 98.74999999999997 L -3.75 98.74999999999997 L -3.75 95.74999999999999 L -17.25 95.74999999999999 L -17.25 98.74999999999997 L -18.881000518798828 98.74999999999997 L -30.24799919128418 98.74999999999997 L -30.75 98.74999999999997 L -30.75 95.74999999999999 L -44.25 95.74999999999999 L -44.25 98.74999999999997 L -45.24300003051758 98.74999999999997 L -57.75 98.74999999999997 L -57.75 95.74999999999999 L -65.53600311279297 95.74999999999999 L -71.25 95.74999999999999 L -71.25 98.30400085449216 L -71.25 98.74999999999997 L -84.75 98.74999999999997 L -84.75 98.30400085449216 L -84.75 95.74999999999999 L -97 95.74999999999999 L -97 81.9199981689453 L -97 81.49999999999999 L -98.30400085449219 81.49999999999999 L -100 81.49999999999999 L -100 67.99999999999999 L -98.30400085449219 67.99999999999999 L -97 67.99999999999999 L -97 65.53600311279295 L -97 54.499999999999986 L -100 54.499999999999986 L -100 40.99999999999999 L -97 40.99999999999999 L -97 27.499999999999993 L -100 27.499999999999993 L -100 13.999999999999996 L -97 13.999999999999996 L -97 0.5 L -100 0.5 L -100 1.1102230246251565e-16 L -100 -12.999999999999996 L -97 -12.999999999999996 L -97 -26.499999999999993 L -100 -26.499999999999993 L -100 -39.94286727905273 L -100 -39.99999999999999 L -97 -39.99999999999999 L -97 -54.249999999999986 L -84.75 -54.249999999999986 L -84.75 -57.249999999999986 L -71.25 -57.249999999999986 L -71.25 -54.249999999999986 L -65.53600311279297 -54.249999999999986 L -57.75 -54.249999999999986 L -57.75 -57.249999999999986 L -44.25 -57.249999999999986 L -44.25 -54.249999999999986 L -32.768001556396484 -54.249999999999986 L -30.75 -54.249999999999986 L -30.75 -57.249999999999986 L -17.25 -57.249999999999986 L -17.25 -54.249999999999986 L -16.384000778198242 -54.249999999999986 L -3.75 -54.249999999999986 L -3.75 -57.249999999999986 L 0 -57.249999999999986 L 9.75 -57.249999999999986 L 9.75 -54.249999999999986 L 16.384000778198242 -54.249999999999986 L 23.25 -54.249999999999986 L 23.25 -57.249999999999986 L 32.768001556396484 -57.249999999999986 L 36.75 -57.249999999999986 L 36.75 -54.249999999999986 L 50.25 -54.249999999999986 L 50.25 -57.249999999999986 L 63.75 -57.249999999999986 L 63.75 -54.249999999999986 L 65.53600311279297 -54.249999999999986 L 77.25 -54.249999999999986 L 77.25 -57.249999999999986 L 81.91999816894531 -57.249999999999986 L 90.75 -57.249999999999986 L 90.75 -54.249999999999986 L 98.30400085449219 -54.249999999999986 L 103 -54.249999999999986 L 103 -39.99999999999999 L 106 -39.99999999999999 L 106 -32.76800155639648 L 106 -26.499999999999993 M 15.425000190734863 -40.594001770019524 L 15.359999656677246 -40.640552520751946 L 15.35099983215332 -40.64699935913085 L 15.269000053405762 -40.70100021362304 L 15.185999870300293 -40.752998352050774 L 15.100000381469727 -40.80300140380859 L 15.012999534606934 -40.84999847412109 L 14.925000190734863 -40.89400100708007 L 14.835000038146973 -40.9360008239746 L 14.7783842086792 -40.95999908447265 L 14.743000030517578 -40.97499847412109 L 14.649999618530273 -41.011001586914055 L 14.555999755859375 -41.04399871826171 L 14.460000038146973 -41.07400131225585 L 14.383999824523926 -41.09500122070312 L 14.36400032043457 -41.101001739501946 L 14.348922729492188 -41.104690551757805 L 14.336000442504883 -41.107856750488274 L 14.265999794006348 -41.12499999999999 L 14.166999816894531 -41.14699935913085 L 14.067000389099121 -41.16500091552734 L 13.965999603271484 -41.180000305175774 L 13.86400032043457 -41.19100189208984 L 13.76099967956543 -41.200000762939446 L 13.657999992370605 -41.20500183105468 L 13.553999900817871 -41.20700073242187 L 13.449999809265137 -41.20500183105468 L 13.359999656677246 -41.20100021362304 L 13.347000122070312 -41.200000762939446 L 13.312000274658203 -41.19691085815429 L 13.244999885559082 -41.19100189208984 L 13.144000053405762 -41.180000305175774 L 13.043999671936035 -41.16500091552734 L 12.944999694824219 -41.14699935913085 L 12.847999572753906 -41.12499999999999 L 12.751999855041504 -41.101001739501946 L 12.656999588012695 -41.07400131225585 L 12.562999725341797 -41.04399871826171 L 12.470999717712402 -41.009998321533196 L 12.380000114440918 -40.97399902343749 L 12.347579002380371 -40.95999908447265 L 12.336000442504883 -40.95500183105468 L 12.291000366210938 -40.9360008239746 L 12.288000106811523 -40.934551239013665 L 12.204000473022461 -40.89400100708007 L 12.118000030517578 -40.84999847412109 L 12.032999992370605 -40.80300140380859 L 11.951000213623047 -40.752998352050774 L 11.88778018951416 -40.71241378784179 L 11.869999885559082 -40.70100021362304 L 11.791000366210938 -40.64699935913085 L 11.722000122070312 -40.594001770019524 L 11.71500015258789 -40.58900070190429 L 11.640000343322754 -40.52999877929687 L 11.567000389099121 -40.467998504638665 L 11.544812202453613 -40.44800186157226 L 11.496000289916992 -40.403999328613274 L 11.434666633605957 -40.34533309936523 L 11.427000045776367 -40.338001251220696 L 11.361000061035156 -40.26900100708007 L 11.312000274658203 -40.21500015258788 L 11.295999526977539 -40.19800186157226 L 11.263999938964844 -40.16083908081054 L 11.234000205993652 -40.12599945068359 L 11.173999786376953 -40.05099868774413 L 11.116999626159668 -39.97399902343749 L 11.090544700622559 -39.9360008239746 L 11.062000274658203 -39.895000457763665 L 11.010000228881836 -39.81499862670898 L 10.960000038146973 -39.73199844360351 L 10.913000106811523 -39.647998809814446 L 10.871999740600586 -39.56999969482421 L 10.868000030517578 -39.562000274658196 L 10.826000213623047 -39.47399902343749 L 10.786999702453613 -39.384998321533196 L 10.75100040435791 -39.29399871826171 L 10.718000411987305 -39.20199966430663 L 10.687000274658203 -39.10800170898437 L 10.65999984741211 -39.01300048828124 L 10.635000228881836 -38.91600036621093 L 10.634142875671387 -38.91199874877929 L 10.61400032043457 -38.818000793457024 L 10.595999717712402 -38.719001770019524 L 10.581000328063965 -38.618999481201165 L 10.571999549865723 -38.546001434326165 L 10.569000244140625 -38.51699829101562 L 10.5600004196167 -38.41500091552734 L 10.555000305175781 -38.3110008239746 L 10.553000450134277 -38.206001281738274 L 10.555000305175781 -38.101001739501946 L 10.5600004196167 -37.99700164794921 L 10.569000244140625 -37.89300155639648 L 10.569528579711914 -37.88800048828124 L 10.579999923706055 -37.78900146484374 L 10.595999717712402 -37.687000274658196 L 10.61400032043457 -37.58499908447265 L 10.626999855041504 -37.52199935913085 L 10.635000228881836 -37.48400115966796 L 10.65999984741211 -37.3839988708496 L 10.687000274658203 -37.2849998474121 L 10.718000411987305 -37.18799972534179 L 10.75100040435791 -37.09099960327148 L 10.786999702453613 -36.99599838256835 L 10.826000213623047 -36.90200042724609 L 10.843161582946777 -36.86399841308593 L 10.868000030517578 -36.80899810791015 L 10.913000106811523 -36.717998504638665 L 10.960000038146973 -36.627998352050774 L 11.010000228881836 -36.54000091552734 L 11.03499984741211 -36.498001098632805 L 11.062000274658203 -36.45299911499023 L 11.116999626159668 -36.368999481201165 L 11.173999786376953 -36.285999298095696 L 11.234000205993652 -36.20500183105468 L 11.295999526977539 -36.12599945068359 L 11.359999656677246 -36.048999786376946 L 11.427000045776367 -35.97399902343749 L 11.496000289916992 -35.90200042724609 L 11.557126998901367 -35.84000015258788 L 11.565999984741211 -35.831001281738274 L 11.638999938964844 -35.76300048828124 L 11.71399974822998 -35.69800186157226 L 11.791000366210938 -35.634998321533196 L 11.869999885559082 -35.57400131225585 L 11.951000213623047 -35.515998840332024 L 12.032999992370605 -35.46099853515624 L 12.116999626159668 -35.40900039672851 L 12.20300006866455 -35.35900115966796 L 12.288000106811523 -35.31360244750976 L 12.291000366210938 -35.312000274658196 L 12.336000442504883 -35.29000091552734 L 12.380000114440918 -35.26900100708007 L 12.470999717712402 -35.22800064086913 L 12.562999725341797 -35.19100189208984 L 12.656000137329102 -35.15700149536132 L 12.75100040435791 -35.12599945068359 L 12.847000122070312 -35.0979995727539 L 12.944999694824219 -35.07400131225585 L 13.043999671936035 -35.05300140380859 L 13.144000053405762 -35.035999298095696 L 13.244999885559082 -35.022998809814446 L 13.312000274658203 -35.01642990112304 L 13.347000122070312 -35.01300048828124 L 13.359999656677246 -35.01200103759765 L 13.449999809265137 -35.00799942016601 L 13.553999900817871 -35.00600051879882 L 13.657999992370605 -35.00799942016601 L 13.76099967956543 -35.01300048828124 L 13.86400032043457 -35.022998809814446 L 13.965999603271484 -35.035999298095696 L 14.067000389099121 -35.05300140380859 L 14.166999816894531 -35.07400131225585 L 14.265999794006348 -35.0979995727539 L 14.336000442504883 -35.11800003051757 L 14.36400032043457 -35.12599945068359 L 14.383999824523926 -35.131999969482415 L 14.461000442504883 -35.15700149536132 L 14.555999755859375 -35.19100189208984 L 14.651000022888184 -35.22800064086913 L 14.744000434875488 -35.26900100708007 L 14.835000038146973 -35.312000274658196 L 14.925000190734863 -35.35900115966796 L 15.013999938964844 -35.40900039672851 L 15.10099983215332 -35.46099853515624 L 15.185999870300293 -35.515998840332024 L 15.270000457763672 -35.57400131225585 L 15.35099983215332 -35.634998321533196 L 15.359999656677246 -35.642105102539055 L 15.407999992370605 -35.680000305175774 L 15.430999755859375 -35.69800186157226 L 15.508999824523926 -35.76300048828124 L 15.585000038146973 -35.831001281738274 L 15.594513893127441 -35.84000015258788 L 15.659000396728516 -35.90100097656249 L 15.730999946594238 -35.97399902343749 L 15.800999641418457 -36.048999786376946 L 15.868000030517578 -36.12599945068359 L 15.932999610900879 -36.20500183105468 L 15.996000289916992 -36.285999298095696 L 16.055999755859375 -36.36800003051757 L 16.11400032043457 -36.45299911499023 L 16.14299964904785 -36.498001098632805 L 16.16900062561035 -36.53900146484374 L 16.222000122070312 -36.627998352050774 L 16.27199935913086 -36.71699905395507 L 16.319000244140625 -36.807998657226555 L 16.34609603881836 -36.86399841308593 L 16.36400032043457 -36.90100097656249 L 16.384000778198242 -36.946853637695305 L 16.405000686645508 -36.99499893188476 L 16.43199920654297 -37.0610008239746 L 16.444000244140625 -37.09099960327148 L 16.479000091552734 -37.187000274658196 L 16.511999130249023 -37.2849998474121 L 16.541000366210938 -37.3839988708496 L 16.566999435424805 -37.48400115966796 L 16.576000213623047 -37.52199935913085 L 16.59000015258789 -37.58499908447265 L 16.608999252319336 -37.687000274658196 L 16.625 -37.78900146484374 L 16.637495040893555 -37.88800048828124 L 16.63800048828125 -37.89199829101562 L 16.64699935913086 -37.99599838256835 L 16.652999877929688 -38.101001739501946 L 16.65399932861328 -38.206001281738274 L 16.652999877929688 -38.3110008239746 L 16.64699935913086 -38.41500091552734 L 16.639068603515625 -38.50488662719726 L 16.63800048828125 -38.51699829101562 L 16.634000778198242 -38.546001434326165 L 16.625 -38.618999481201165 L 16.608999252319336 -38.719001770019524 L 16.59000015258789 -38.81900024414062 L 16.568174362182617 -38.91199874877929 L 16.566999435424805 -38.916999816894524 L 16.541000366210938 -39.01300048828124 L 16.51099967956543 -39.10900115966796 L 16.479000091552734 -39.20199966430663 L 16.445735931396484 -39.2879295349121 L 16.44300079345703 -39.294998168945305 L 16.43199920654297 -39.320999145507805 L 16.405000686645508 -39.386001586914055 L 16.384000778198242 -39.43050003051757 L 16.363000869750977 -39.47499847412109 L 16.320375442504883 -39.560249328613274 L 16.319000244140625 -39.56299972534179 L 16.315000534057617 -39.56999969482421 L 16.27199935913086 -39.647998809814446 L 16.222000122070312 -39.73300170898437 L 16.16900062561035 -39.81499862670898 L 16.11400032043457 -39.89599990844726 L 16.084632873535156 -39.9360008239746 L 16.055999755859375 -39.97499847412109 L 15.996000289916992 -40.05099868774413 L 15.932999610900879 -40.12599945068359 L 15.868000030517578 -40.19900131225585 L 15.800000190734863 -40.270000457763665 L 15.730999946594238 -40.338001251220696 L 15.659000396728516 -40.403999328613274 L 15.585000038146973 -40.467998504638665 L 15.508999824523926 -40.52999877929687 L 15.430999755859375 -40.59000015258788 L 15.425000190734863 -40.594001770019524 M -71.69999694824219 88.43000030517577 L -71.72000122070312 88.37999725341795 L -71.78800201416016 88.23100280761717 L -71.86000061035156 88.08499908447264 L -71.87130737304688 88.06400299072264 L -71.93699645996094 87.94200134277342 L -72.01799774169922 87.80200195312499 L -72.10399627685547 87.66400146484374 L -72.18724822998047 87.54004669189452 L -72.19400024414062 87.52999877929686 L -72.28299713134766 87.40599822998045 L -72.28800201416016 87.3990020751953 L -72.38600158691406 87.26999664306639 L -72.48899841308594 87.14499664306639 L -72.58098602294922 87.04000091552733 L -72.59500122070312 87.0240020751953 L -72.70500183105469 86.90499877929686 L -72.81900024414062 86.79100036621092 L -72.93699645996094 86.68000030517577 L -73.05799865722656 86.57199859619139 L -73.18199920654297 86.46900177001952 L -73.30999755859375 86.36900329589842 L -73.44100189208984 86.2730026245117 L -73.49159240722656 86.23863983154295 L -73.57499694824219 86.18199920654295 L -73.68000030517578 86.11499786376952 L -73.71199798583984 86.09400177001952 L -73.72799682617188 86.08451080322264 L -73.84356689453125 86.01599884033202 L -73.85199737548828 86.01100158691405 L -73.99500274658203 85.93199920654295 L -74.13999938964844 85.85700225830077 L -74.28800201416016 85.78700256347655 L -74.43900299072266 85.7220001220703 L -74.56649780273438 85.67199707031249 L -74.59200286865234 85.66200256347655 L -74.7040023803711 85.6220016479492 L -74.74800109863281 85.60600280761717 L -74.90499877929688 85.55500030517577 L -75.06500244140625 85.50900268554686 L -75.22599792480469 85.46800231933592 L -75.3836898803711 85.43338775634764 L -75.38999938964844 85.43199920654295 L -75.55500030517578 85.40200042724608 L -75.72200012207031 85.37699890136717 L -75.72799682617188 85.37599945068358 L -75.7760009765625 85.37040710449217 L -75.89099884033203 85.35700225830077 L -76.06099700927734 85.34300231933592 L -76.23300170898438 85.33399963378905 L -76.40599822998047 85.33200073242186 L -76.5790023803711 85.33399963378905 L -76.75 85.34300231933592 L -76.91899871826172 85.35700225830077 L -77.08699798583984 85.37699890136717 L -77.25299835205078 85.40200042724608 L -77.41799926757812 85.43299865722655 L -77.58000183105469 85.46900177001952 L -77.73999786376953 85.51000213623045 L -77.7760009765625 85.51999664306639 L -77.8239974975586 85.53416442871092 L -77.89800262451172 85.55599975585936 L -78.05400085449219 85.60700225830077 L -78.20700073242188 85.66300201416014 L -78.35800170898438 85.72299957275389 L -78.50700378417969 85.78900146484374 L -78.65299987792969 85.85900115966795 L -78.7959976196289 85.93299865722655 L -78.93599700927734 86.01200103759764 L -78.9426498413086 86.01599884033202 L -79.0739974975586 86.09500122070311 L -79.20800018310547 86.18299865722655 L -79.33999633789062 86.27500152587889 L -79.46800231933594 86.37000274658202 L -79.59300231933594 86.47000122070311 L -79.65705108642578 86.52459716796874 L -79.71499633789062 86.57399749755858 L -79.8239974975586 86.67299652099608 L -79.83300018310547 86.68099975585936 L -79.87200164794922 86.71864318847655 L -79.947998046875 86.79199981689452 L -80.05899810791016 86.90699768066405 L -80.16600036621094 87.02500152587889 L -80.2699966430664 87.14700317382811 L -80.37000274658203 87.27200317382811 L -80.46499633789062 87.40100097656249 L -80.55699920654297 87.53199768066405 L -80.6449966430664 87.66600036621092 L -80.72799682617188 87.80400085449217 L -80.80699920654297 87.94400024414061 L -80.86949920654297 88.06400299072264 L -80.88200378417969 88.08799743652342 L -80.9520034790039 88.23400115966795 L -81.00899505615234 88.36376953124999 L -81.01699829101562 88.38200378417967 L -81.03600311279297 88.43000030517577 L -81.0780029296875 88.53299713134764 L -81.13400268554688 88.68699645996092 L -81.18499755859375 88.84200286865233 L -81.23100280761719 88.99999999999999 L -81.27200317382812 89.16100311279295 L -81.30799865722656 89.32299804687499 L -81.33799743652344 89.48699951171874 L -81.36399841308594 89.65399932861327 L -81.38400268554688 89.82199859619139 L -81.39800262451172 89.99099731445311 L -81.40433502197266 90.11199951171874 L -81.40699768066406 90.16300201416014 L -81.41000366210938 90.33499908447264 L -81.40799713134766 90.47799682617186 L -81.40699768066406 90.50800323486327 L -81.39900207519531 90.68000030517577 L -81.38500213623047 90.84999847412108 L -81.36499786376953 91.0189971923828 L -81.33999633789062 91.18599700927733 L -81.30999755859375 91.35199737548827 L -81.27400207519531 91.51599884033202 L -81.23300170898438 91.67700195312499 L -81.18699645996094 91.83699798583983 L -81.13700103759766 91.99500274658202 L -81.08100128173828 92.15000152587889 L -81.07701110839844 92.16000366210936 L -81.0199966430664 92.30300140380858 L -80.95500183105469 92.45400238037108 L -80.9209976196289 92.52600097656249 L -80.88500213623047 92.60199737548827 L -80.81099700927734 92.7480010986328 L -80.73200225830078 92.89099884033202 L -80.64900207519531 93.03099822998045 L -80.56199645996094 93.16799926757811 L -80.47000122070312 93.30300140380858 L -80.375 93.43399810791014 L -80.2750015258789 93.56099700927733 L -80.1719970703125 93.68599700927733 L -80.06400299072266 93.80699920654295 L -79.9530029296875 93.9250030517578 L -79.87200164794922 94.00599670410155 L -79.82499694824219 94.05300140380858 L -79.8233871459961 94.05381011962889 L -79.822998046875 94.05400085449217 L -79.8239974975586 94.05300140380858 L -79.83999633789062 94.03199768066405 L -79.83775329589844 94.03124999999999 L -79.83699798583984 94.03099822998045 L -79.8219985961914 94.0449981689453 L -79.79900360107422 94.06900024414061 L -79.77200317382812 94.0960006713867 L -79.74700164794922 94.1220016479492 L -79.72799682617188 94.14099884033202 L -79.72100067138672 94.1490020751953 L -79.7128677368164 94.15613555908202 L -79.65373229980469 94.20800018310545 L -79.5989990234375 94.25599670410155 L -79.4739990234375 94.35800170898436 L -79.34600067138672 94.45700073242186 L -79.21499633789062 94.55100250244139 L -79.18099975585938 94.57399749755858 L -79.08000183105469 94.64099884033202 L -78.94300079345703 94.72699737548827 L -78.8030014038086 94.80899810791014 L -78.66000366210938 94.88500213623045 L -78.51399993896484 94.95800018310545 L -78.36599731445312 95.02500152587889 L -78.21499633789062 95.08799743652342 L -78.06199645996094 95.14600372314452 L -77.90599822998047 95.19899749755858 L -77.8239974975586 95.22360229492186 L -77.7760009765625 95.23799896240233 L -77.74800109863281 95.24600219726561 L -77.58799743652344 95.28900146484374 L -77.4260025024414 95.32599639892577 L -77.26200103759766 95.35700225830077 L -77.09600067138672 95.38300323486327 L -76.92900085449219 95.40399932861327 L -76.75900268554688 95.41799926757811 L -76.58799743652344 95.42700195312499 L -76.41600036621094 95.43000030517577 L -76.24299621582031 95.42700195312499 L -76.0719985961914 95.41799926757811 L -75.9020004272461 95.40299987792967 L -75.7760009765625 95.38809204101561 L -75.73300170898438 95.38300323486327 L -75.72799682617188 95.38200378417967 L -75.56600189208984 95.35600280761717 L -75.4010009765625 95.32499694824217 L -75.23699951171875 95.28700256347655 L -75.1844253540039 95.27328491210936 L -75.07599639892578 95.24500274658202 L -74.91600036621094 95.19699859619139 L -74.75800323486328 95.1439971923828 L -74.60299682617188 95.08599853515624 L -74.44999694824219 95.0230026245117 L -74.29900360107422 94.95500183105467 L -74.1510009765625 94.88300323486327 L -74.00499725341797 94.80599975585936 L -73.86199951171875 94.72399902343749 L -73.72799682617188 94.64168548583983 L -73.72200012207031 94.63800048828124 L -73.625 94.57399749755858 L -73.58499908447266 94.54799652099608 L -73.45099639892578 94.45300292968749 L -73.31900024414062 94.35399627685545 L -73.19100189208984 94.25199890136717 L -73.14000701904297 94.20800018310545 L -73.06700134277344 94.14499664306639 L -72.94499969482422 94.03399658203124 L -72.8280029296875 93.9199981689453 L -72.71299743652344 93.80300140380858 L -72.60299682617188 93.68099975585936 L -72.49600219726562 93.55699920654295 L -72.48999786376953 93.5500030517578 L -72.39399719238281 93.42900085449217 L -72.29499816894531 93.29699707031249 L -72.21488952636719 93.18399810791014 L -72.19999694824219 93.16300201416014 L -72.11000061035156 93.02600097656249 L -72.02400207519531 92.88600158691405 L -71.94200134277344 92.7429962158203 L -71.86560821533203 92.59815216064452 L -71.86499786376953 92.5970001220703 L -71.83000183105469 92.52600097656249 L -71.79199981689453 92.44899749755858 L -71.7249984741211 92.29799652099608 L -71.68000030517578 92.18871307373045 L -71.66817474365234 92.16000366210936 L -71.6645736694336 92.15124511718749 L -71.66200256347656 92.14499664306639 L -71.63200378417969 92.06400299072264 L -71.60399627685547 91.98899841308592 L -71.5510025024414 91.83200073242186 L -71.50299835205078 91.67199707031249 L -71.45999908447266 91.51000213623045 L -71.4229965209961 91.3460006713867 L -71.39099884033203 91.18099975585936 L -71.36499786376953 91.01399993896483 L -71.34400177001953 90.84500122070311 L -71.3290023803711 90.6750030517578 L -71.32086944580078 90.52046966552733 L -71.31999969482422 90.50399780273436 L -71.31999969482422 90.47799682617186 L -71.31700134277344 90.33100128173827 L -71.31900024414062 90.15799713134764 L -71.32141876220703 90.11199951171874 L -71.3280029296875 89.98699951171874 L -71.34300231933594 89.81800079345702 L -71.36299896240234 89.65000152587889 L -71.38899993896484 89.48400115966795 L -71.4209976196289 89.3199996948242 L -71.45800018310547 89.15799713134764 L -71.5 88.9980010986328 L -71.5469970703125 88.83999633789061 L -71.5999984741211 88.68399810791014 L -71.63200378417969 88.59999847412108 L -71.65799713134766 88.53099822998045 L -71.66140747070312 88.52281188964842 L -71.69999694824219 88.43000030517577 M 76.83599853515625 27.45800018310546 L 65.53600311279297 38.82854843139648 L 62.74100112915039 41.640998840332024 L 65.53600311279297 44.44750213623046 L 76.83599853515625 55.793998718261705 L 77.25 55.38000106811522 L 90.75 41.88000106811523 L 91.01899719238281 41.61100006103515 L 90.75 41.34256744384765 L 77.25 27.871124267578118 L 76.83599853515625 27.45800018310546 M 6.14300012588501 58.61100006103514 L 0 52.463222503662095 L -3.75 48.71030426025389 L -7.994904041290283 44.46209716796874 L -7.998000144958496 44.458999633789055 L -17.25 53.71427917480467 L -18.881000518798828 55.34585571289061 L -22.11199951171875 58.57799911499022 L -18.881000518798828 61.82755279541014 L -17.25 63.46791839599608 L -8.005000114440918 72.76599884033202 L -3.75 68.50889587402342 L 0 64.75704193115233 L 1.3317859172821045 63.424594879150376 L 6.14300012588501 58.61100006103514 M -4.212342280540682e-15 36.45247650146484 L -3.75 40.20938110351562 L -5.172999858856201 41.634998321533196 L -3.75 43.05941009521484 L 0 46.81312179565429 L 8.965303421020508 55.78730010986327 L 8.968000411987305 55.79000091552733 L 23.113000869750977 41.647998809814446 L 23.105304718017578 41.64030456542968 L 8.951000213623047 27.485000610351555 L -4.212342280540682e-15 36.45247650146484 M 45.70500183105469 58.64300155639647 L 59.88999938964844 72.7679977416992 L 65.53600311279297 67.1220016479492 L 74.05500030517578 58.603000640869126 L 74.04100036621094 58.58900070190428 L 65.53600311279297 50.08399963378905 L 59.92578887939453 44.47378921508788 L 59.88999938964844 44.43799972534179 L 45.70500183105469 58.64300155639647 M -25.552000045776367 -41.12499999999999 L -25.600000381469727 -41.13732528686523 L -25.625999450683594 -41.14400100708007 L -25.724000930786133 -41.16500091552734 L -25.822999954223633 -41.182998657226555 L -25.922000885009766 -41.19800186157226 L -26.023000717163086 -41.20999908447265 L -26.125 -41.219001770019524 L -26.229000091552734 -41.22399902343749 L -26.332000732421875 -41.22499847412109 L -26.437000274658203 -41.22399902343749 L -26.540000915527344 -41.219001770019524 L -26.576000213623047 -41.21599960327148 L -26.624000549316406 -41.21170043945312 L -26.64299964904785 -41.20999908447265 L -26.743999481201172 -41.19800186157226 L -26.844999313354492 -41.182998657226555 L -26.94499969482422 -41.16500091552734 L -27.04400062561035 -41.14400100708007 L -27.142000198364258 -41.118999481201165 L -27.23900032043457 -41.09199905395507 L -27.334999084472656 -41.0610008239746 L -27.429000854492188 -41.02799987792968 L -27.52199935913086 -40.99200057983398 L -27.59541130065918 -40.95999908447265 L -27.59604263305664 -40.959724426269524 L -27.600000381469727 -40.95800018310546 L -27.613000869750977 -40.95199966430663 L -27.648000717163086 -40.93605422973632 L -27.702999114990234 -40.910999298095696 L -27.79199981689453 -40.86600112915038 L -27.878999710083008 -40.81900024414062 L -27.964000701904297 -40.76900100708007 L -28.04800033569336 -40.71699905395507 L -28.128999710083008 -40.66199874877929 L -28.208999633789062 -40.60400009155273 L -28.222000122070312 -40.594001770019524 L -28.28700065612793 -40.544998168945305 L -28.3084774017334 -40.52747726440429 L -28.363000869750977 -40.48300170898437 L -28.40284538269043 -40.44800186157226 L -28.437000274658203 -40.41799926757812 L -28.509000778198242 -40.35200119018554 L -28.56302261352539 -40.29875183105468 L -28.57900047302246 -40.283000946044915 L -28.624000549316406 -40.235000610351555 L -28.645999908447266 -40.2120018005371 L -28.672000885009766 -40.183242797851555 L -28.711999893188477 -40.13899993896484 L -28.77400016784668 -40.06399917602538 L -28.834999084472656 -39.98699951171874 L -28.872268676757812 -39.9360008239746 L -28.892000198364258 -39.90900039672851 L -28.934377670288086 -39.84770202636718 L -28.947999954223633 -39.82799911499023 L -29 -39.74599838256835 L -29.049999237060547 -39.660999298095696 L -29.097999572753906 -39.575000762939446 L -29.10099983215332 -39.56999969482421 L -29.142000198364258 -39.48799896240234 L -29.183000564575195 -39.39899826049804 L -29.222000122070312 -39.307998657226555 L -29.257999420166016 -39.21599960327148 L -29.290000915527344 -39.12200164794921 L -29.319000244140625 -39.02700042724609 L -29.344999313354492 -38.93099975585937 L -29.349504470825195 -38.91199874877929 L -29.368000030517578 -38.833999633789055 L -29.38800048828125 -38.735000610351555 L -29.40399932861328 -38.634998321533196 L -29.415000915527344 -38.546001434326165 L -29.41699981689453 -38.53400039672851 L -29.418289184570312 -38.51938247680663 L -29.426000595092773 -38.43199920654296 L -29.430999755859375 -38.32899856567382 L -29.433000564575195 -38.22499847412109 L -29.430999755859375 -38.12099838256835 L -29.426000595092773 -38.01699829101562 L -29.41699981689453 -37.91500091552734 L -29.413558959960938 -37.88800048828124 L -29.40399932861328 -37.81299972534179 L -29.38800048828125 -37.7120018005371 L -29.368000030517578 -37.61199951171874 L -29.347000122070312 -37.52199935913085 L -29.344999313354492 -37.51300048828124 L -29.34416961669922 -37.50987243652343 L -29.319000244140625 -37.41500091552734 L -29.290000915527344 -37.318000793457024 L -29.257999420166016 -37.2229995727539 L -29.222000122070312 -37.127998352050774 L -29.18400001525879 -37.0349998474121 L -29.142000198364258 -36.94400024414062 L -29.102888107299805 -36.86399841308593 L -29.097999572753906 -36.85400009155273 L -29.049999237060547 -36.76499938964843 L -29.000999450683594 -36.67800140380859 L -28.947999954223633 -36.592998504638665 L -28.89457130432129 -36.51139831542968 L -28.89299964904785 -36.5089988708496 L -28.885000228881836 -36.498001098632805 L -28.834999084472656 -36.42800140380859 L -28.77400016784668 -36.3479995727539 L -28.711999893188477 -36.270000457763665 L -28.672000885009766 -36.2232322692871 L -28.647552490234375 -36.19464492797851 L -28.64699935913086 -36.19400024414062 L -28.624000549316406 -36.16899871826171 L -28.57900047302246 -36.11999893188476 L -28.509000778198242 -36.04800033569335 L -28.437999725341797 -35.97800064086913 L -28.36400032043457 -35.910999298095696 L -28.288000106811523 -35.84600067138671 L -28.28057098388672 -35.84000015258788 L -28.209999084472656 -35.783000946044915 L -28.1299991607666 -35.7229995727539 L -28.04800033569336 -35.66500091552734 L -27.964000701904297 -35.60900115966796 L -27.878999710083008 -35.55699920654296 L -27.79199981689453 -35.506999969482415 L -27.70400047302246 -35.45999908447265 L -27.648000717163086 -35.43230819702148 L -27.613000869750977 -35.41500091552734 L -27.600000381469727 -35.40900039672851 L -27.52199935913086 -35.3740005493164 L -27.429000854492188 -35.33499908447265 L -27.334999084472656 -35.29999923706054 L -27.23900032043457 -35.26699829101562 L -27.142000198364258 -35.23799896240234 L -27.04400062561035 -35.2120018005371 L -26.94499969482422 -35.18899917602538 L -26.844999313354492 -35.169998168945305 L -26.7450008392334 -35.15299987792968 L -26.64299964904785 -35.140998840332024 L -26.624000549316406 -35.139297485351555 L -26.576000213623047 -35.134998321533196 L -26.540000915527344 -35.131999969482415 L -26.437000274658203 -35.12599945068359 L -26.332000732421875 -35.1240005493164 L -26.22800064086914 -35.12599945068359 L -26.125 -35.131999969482415 L -26.023000717163086 -35.140998840332024 L -25.922000885009766 -35.15299987792968 L -25.82200050354004 -35.169998168945305 L -25.724000930786133 -35.18899917602538 L -25.625999450683594 -35.2120018005371 L -25.600000381469727 -35.21902847290038 L -25.552000045776367 -35.23199844360351 L -25.530000686645508 -35.23799896240234 L -25.434999465942383 -35.26699829101562 L -25.340999603271484 -35.29999923706054 L -25.249000549316406 -35.33499908447265 L -25.159000396728516 -35.3740005493164 L -25.069000244140625 -35.41500091552734 L -24.98200035095215 -35.45999908447265 L -24.895999908447266 -35.506999969482415 L -24.812000274658203 -35.55699920654296 L -24.729000091552734 -35.610000610351555 L -24.64900016784668 -35.66500091552734 L -24.576000213623047 -35.7185935974121 L -24.56999969482422 -35.7229995727539 L -24.527999877929688 -35.75600051879882 L -24.493000030517578 -35.783000946044915 L -24.425142288208008 -35.84000015258788 L -24.417999267578125 -35.84600067138671 L -24.344999313354492 -35.910999298095696 L -24.27400016784668 -35.97800064086913 L -24.20599937438965 -36.04800033569335 L -24.138999938964844 -36.11999893188476 L -24.075000762939453 -36.19400024414062 L -24.01300048828125 -36.270000457763665 L -23.952999114990234 -36.3479995727539 L -23.950149536132812 -36.35200119018554 L -23.895999908447266 -36.42800140380859 L -23.849000930786133 -36.498001098632805 L -23.840999603271484 -36.509998321533196 L -23.788000106811523 -36.592998504638665 L -23.73900032043457 -36.67900085449218 L -23.69099998474121 -36.76499938964843 L -23.64699935913086 -36.85400009155273 L -23.642333984375 -36.86399841308593 L -23.604999542236328 -36.94400024414062 L -23.56599998474121 -37.035999298095696 L -23.530000686645508 -37.12900161743163 L -23.496000289916992 -37.2229995727539 L -23.465999603271484 -37.318000793457024 L -23.437999725341797 -37.41500091552734 L -23.413999557495117 -37.51300048828124 L -23.392000198364258 -37.61199951171874 L -23.374000549316406 -37.7120018005371 L -23.358999252319336 -37.81299972534179 L -23.350175857543945 -37.88800048828124 L -23.347000122070312 -37.91500091552734 L -23.339000701904297 -38.01699829101562 L -23.333999633789062 -38.12099838256835 L -23.332000732421875 -38.22499847412109 L -23.333999633789062 -38.32899856567382 L -23.339000701904297 -38.43199920654296 L -23.34549331665039 -38.51479339599609 L -23.347000122070312 -38.53400039672851 L -23.349000930786133 -38.546001434326165 L -23.358999252319336 -38.634998321533196 L -23.374000549316406 -38.735000610351555 L -23.392000198364258 -38.833999633789055 L -23.409690856933594 -38.91199874877929 L -23.413999557495117 -38.93099975585937 L -23.437999725341797 -39.02700042724609 L -23.465999603271484 -39.12200164794921 L -23.496000289916992 -39.21599960327148 L -23.530000686645508 -39.307998657226555 L -23.56599998474121 -39.39899826049804 L -23.604999542236328 -39.48799896240234 L -23.645000457763672 -39.56999969482421 L -23.64699935913086 -39.575000762939446 L -23.656429290771484 -39.59342956542968 L -23.69099998474121 -39.660999298095696 L -23.73900032043457 -39.74499893188476 L -23.788000106811523 -39.82799911499023 L -23.840999603271484 -39.908000946044915 L -23.86049461364746 -39.9360008239746 L -23.895999908447266 -39.98699951171874 L -23.952999114990234 -40.06399917602538 L -24.01300048828125 -40.13899993896484 L -24.075000762939453 -40.2120018005371 L -24.138999938964844 -40.283000946044915 L -24.20599937438965 -40.35200119018554 L -24.27400016784668 -40.41799926757812 L -24.344999313354492 -40.48300170898437 L -24.417999267578125 -40.544998168945305 L -24.479999542236328 -40.594001770019524 L -24.493000030517578 -40.60400009155273 L -24.527999877929688 -40.63000106811523 L -24.56999969482422 -40.66199874877929 L -24.576000213623047 -40.66617584228515 L -24.64900016784668 -40.71699905395507 L -24.729999542236328 -40.76900100708007 L -24.812000274658203 -40.81900024414062 L -24.895999908447266 -40.86600112915038 L -24.98200035095215 -40.910999298095696 L -25.06999969482422 -40.95199966430663 L -25.087799072265625 -40.95999908447265 L -25.159000396728516 -40.99200057983398 L -25.249000549316406 -41.02799987792968 L -25.341999053955078 -41.0610008239746 L -25.434999465942383 -41.09199905395507 L -25.530000686645508 -41.118999481201165 L -25.552000045776367 -41.12499999999999 M -71.25 -39.916999816894524 L -83.30000305175781 -39.92800140380859 L -83.30000305175781 -26.499999999999993 L -83.30000305175781 -25.83699989318847 L -65.53600311279297 -25.83699989318847 L -58.53900146484375 -25.83699989318847 L -58.53900146484375 -39.90599822998046 L -65.53600311279297 -39.912220001220696 L -67.53600311279297 -39.91400146484374 L -71.25 -39.916999816894524 M -3.885999917984009 7.688000202178953 L -17.25 7.688000202178953 L -18.881000518798828 7.688000202178953 L -18.881000518798828 22.670999526977536 L -18.881000518798828 22.68300056457519 L -17.25 22.68300056457519 L -3.885999917984009 22.68300056457519 L -3.885999917984009 7.688000202178953 M -28.95199966430664 7.6760001182556135 L -30.75 7.6760001182556135 L -43.946998596191406 7.6760001182556135 L -43.946998596191406 22.670999526977536 L -30.75 22.670999526977536 L -28.95199966430664 22.670999526977536 L -28.95199966430664 7.6760001182556135 M -81.98400115966797 40.463001251220696 L -81.91999816894531 40.52891540527343 L -81.81700134277344 40.634998321533196 L -81.6449966430664 40.80199813842773 L -81.47129821777344 40.95999908447265 L -81.46800231933594 40.963001251220696 L -81.42459869384766 40.99999999999999 L -81.28500366210938 41.118999481201165 L -81.09700012207031 41.26900100708007 L -80.90499877929688 41.41299819946288 L -80.70800018310547 41.55099868774413 L -80.50599670410156 41.68199920654296 L -80.30000305175781 41.80699920654296 L -80.08999633789062 41.92599868774413 L -79.875 42.03799819946288 L -79.87200164794922 42.039443969726555 L -79.65699768066406 42.14300155639648 L -79.43399810791016 42.24200057983398 L -79.20800018310547 42.33300018310546 L -78.97899627685547 42.416999816894524 L -78.74500274658203 42.493999481201165 L -78.50900268554688 42.56299972534179 L -78.26899719238281 42.62499999999999 L -78.0270004272461 42.67900085449218 L -77.8239974975586 42.716960906982415 L -77.78099822998047 42.72499847412109 L -77.53299713134766 42.76300048828124 L -77.28199768066406 42.791999816894524 L -77.02899932861328 42.81399917602538 L -76.77400207519531 42.82699966430663 L -76.51599884033203 42.831001281738274 L -76.25800323486328 42.82699966430663 L -76.00299835205078 42.81399917602538 L -75.7760009765625 42.79433822631835 L -75.7490005493164 42.791999816894524 L -75.4990005493164 42.76300048828124 L -75.25 42.72499847412109 L -75.00499725341797 42.67900085449218 L -74.76200103759766 42.62499999999999 L -74.52300262451172 42.56299972534179 L -74.28600311279297 42.493999481201165 L -74.0530014038086 42.416999816894524 L -73.8239974975586 42.33300018310546 L -73.72799682617188 42.29434585571288 L -73.5979995727539 42.24200057983398 L -73.375 42.14300155639648 L -73.15699768066406 42.03799819946288 L -72.94200134277344 41.92599868774413 L -72.73200225830078 41.80699920654296 L -72.5260009765625 41.68199920654296 L -72.3239974975586 41.55099868774413 L -72.12699890136719 41.41299819946288 L -71.93399810791016 41.26900100708007 L -71.74700164794922 41.118999481201165 L -71.60740661621094 40.99999999999999 L -71.56400299072266 40.963001251220696 L -71.56069946289062 40.95999908447265 L -71.38700103759766 40.80199813842773 L -71.21399688720703 40.634998321533196 L -71.0469970703125 40.463001251220696 L -70.88600158691406 40.2849998474121 L -70.7300033569336 40.10300064086913 L -70.58100128173828 39.91500091552734 L -70.43699645996094 39.7229995727539 L -70.29900360107422 39.5250015258789 L -70.16699981689453 39.32400131225585 L -70.04199981689453 39.11800003051757 L -69.9229965209961 38.90700149536132 L -69.81099700927734 38.693000793457024 L -69.70600128173828 38.47399902343749 L -69.63200378417969 38.30636596679687 L -69.60800170898438 38.25199890136718 L -69.51599884033203 38.02600097656249 L -69.43199920654297 37.796001434326165 L -69.3550033569336 37.56299972534179 L -69.28600311279297 37.32699966430663 L -69.2249984741211 37.0870018005371 L -69.17544555664062 36.86399841308593 L -69.1709976196289 36.844001770019524 L -69.125 36.59899902343749 L -69.08699798583984 36.351001739501946 L -69.05699920654297 36.09999847412109 L -69.03600311279297 35.847000122070305 L -69.02300262451172 35.59099960327148 L -69.01799774169922 35.33300018310546 L -69.02300262451172 35.07600021362304 L -69.03600311279297 34.81999969482421 L -69.03633117675781 34.81600189208984 L -69.05699920654297 34.56700134277343 L -69.08699798583984 34.31600189208984 L -69.125 34.068000793457024 L -69.1709976196289 33.8219985961914 L -69.2249984741211 33.58000183105468 L -69.28600311279297 33.34000015258788 L -69.3550033569336 33.10400009155273 L -69.43199920654297 32.87099838256835 L -69.46961975097656 32.76800155639648 L -69.51599884033203 32.640998840332024 L -69.60800170898438 32.41500091552734 L -69.63200378417969 32.36063385009765 L -69.70600128173828 32.193000793457024 L -69.81099700927734 31.974000930786126 L -69.9229965209961 31.76000022888183 L -70.04199981689453 31.548999786376946 L -70.16699981689453 31.343000411987298 L -70.29900360107422 31.14200019836425 L -70.43699645996094 30.944000244140618 L -70.58100128173828 30.752000808715813 L -70.60636138916016 30.719999313354485 L -70.7300033569336 30.563999176025384 L -70.88600158691406 30.381999969482415 L -71.0469970703125 30.204000473022454 L -71.21399688720703 30.031999588012688 L -71.38700103759766 29.864999771118157 L -71.56400299072266 29.704000473022454 L -71.74700164794922 29.548000335693352 L -71.93399810791016 29.39800071716308 L -72.12699890136719 29.253999710083 L -72.3239974975586 29.11599922180175 L -72.5260009765625 28.985000610351555 L -72.73200225830078 28.860000610351555 L -72.94200134277344 28.74099922180175 L -73.07445526123047 28.67200088500976 L -73.15699768066406 28.628999710083 L -73.375 28.52300071716308 L -73.5979995727539 28.42499923706054 L -73.72799682617188 28.372653961181634 L -73.8239974975586 28.333999633789055 L -74.0530014038086 28.249999999999993 L -74.28600311279297 28.173000335693352 L -74.52300262451172 28.104000091552727 L -74.76200103759766 28.041999816894524 L -75.00499725341797 27.98800086975097 L -75.25 27.941999435424798 L -75.4990005493164 27.903999328613274 L -75.7490005493164 27.874999999999993 L -75.7760009765625 27.872661590576165 L -76.00299835205078 27.853000640869134 L -76.25800323486328 27.840000152587884 L -76.51599884033203 27.836000442504876 L -76.77400207519531 27.840000152587884 L -77.02899932861328 27.853000640869134 L -77.28199768066406 27.874999999999993 L -77.53299713134766 27.903999328613274 L -77.78099822998047 27.941999435424798 L -77.8239974975586 27.950040817260735 L -78.0270004272461 27.98800086975097 L -78.26899719238281 28.041999816894524 L -78.50900268554688 28.104000091552727 L -78.74500274658203 28.173000335693352 L -78.97899627685547 28.249999999999993 L -79.20800018310547 28.333999633789055 L -79.43399810791016 28.42499923706054 L -79.65699768066406 28.52300071716308 L -79.875 28.628999710083 L -79.9575424194336 28.67200088500976 L -80.08999633789062 28.74099922180175 L -80.30000305175781 28.860000610351555 L -80.50599670410156 28.985000610351555 L -80.70800018310547 29.11599922180175 L -80.90499877929688 29.253999710083 L -81.09700012207031 29.39800071716308 L -81.28500366210938 29.548000335693352 L -81.46800231933594 29.704000473022454 L -81.6449966430664 29.864999771118157 L -81.81700134277344 30.031999588012688 L -81.91999816894531 30.138084411621087 L -81.98400115966797 30.204000473022454 L -82.14600372314453 30.381999969482415 L -82.3010025024414 30.563999176025384 L -82.45099639892578 30.752000808715813 L -82.59500122070312 30.944000244140618 L -82.73300170898438 31.14200019836425 L -82.86499786376953 31.343000411987298 L -82.98999786376953 31.548999786376946 L -83.10800170898438 31.76000022888183 L -83.22100067138672 31.974000930786126 L -83.32599639892578 32.193000793457024 L -83.42400360107422 32.41500091552734 L -83.51499938964844 32.640998840332024 L -83.56193542480469 32.76800155639648 L -83.5999984741211 32.87099838256835 L -83.6760025024414 33.10400009155273 L -83.74600219726562 33.34000015258788 L -83.80699920654297 33.58000183105468 L -83.86100006103516 33.8219985961914 L -83.90699768066406 34.068000793457024 L -83.94499969482422 34.31600189208984 L -83.9749984741211 34.56700134277343 L -83.99566650390625 34.81600189208984 L -83.99600219726562 34.81999969482421 L -84.00900268554688 35.07600021362304 L -84.01300048828125 35.33300018310546 L -84.00900268554688 35.59099960327148 L -83.99600219726562 35.847000122070305 L -83.9749984741211 36.09999847412109 L -83.94499969482422 36.351001739501946 L -83.90699768066406 36.59899902343749 L -83.86100006103516 36.844001770019524 L -83.85655212402344 36.86399841308593 L -83.80699920654297 37.0870018005371 L -83.74600219726562 37.32699966430663 L -83.6760025024414 37.56299972534179 L -83.5999984741211 37.796001434326165 L -83.51499938964844 38.02600097656249 L -83.42400360107422 38.25199890136718 L -83.32599639892578 38.47399902343749 L -83.22100067138672 38.693000793457024 L -83.10800170898438 38.90700149536132 L -83.1052017211914 38.91199874877929 L -82.98999786376953 39.11800003051757 L -82.86499786376953 39.32400131225585 L -82.73300170898438 39.5250015258789 L -82.59500122070312 39.7229995727539 L -82.45099639892578 39.91500091552734 L -82.3010025024414 40.10300064086913 L -82.14600372314453 40.2849998474121 L -81.98400115966797 40.463001251220696 M 50.25 -29.97100067138671 L 61.14500045776367 -29.97100067138671 L 61.14500045776367 -44.96599960327148 L 50.25 -44.96599960327148 L 46.150001525878906 -44.96599960327148 L 46.150001525878906 -29.97100067138671 L 50.25 -29.97100067138671 M 11.779000282287598 58.60599899291991 L 25.93899917602539 72.76599884033202 L 40.09700012207031 58.60599899291991 L 40.09620666503906 58.60520553588866 L 25.965734481811523 44.44577407836913 L 25.945999145507812 44.42599868774413 L 11.779000282287598 58.60599899291991 M 28.757999420166016 41.64699935913085 L 42.9088020324707 55.79380035400389 L 42.909000396728516 55.793998718261705 L 57.06999969482422 41.640998840332024 L 57.0648078918457 41.63579559326171 L 42.915000915527344 27.457000732421868 L 28.757999420166016 41.64699935913085 M -44.25 88.00299835205077 L -30.75 88.00299835205077 L -30.24799919128418 88.00299835205077 L -30.24799919128418 73.00700378417967 L -30.75 73.00700378417967 L -44.25 73.00700378417967 L -45.24300003051758 73.00700378417967 L -45.24300003051758 88.00299835205077 L -44.25 88.00299835205077 M -30.75 50.018737792968736 L -30.24799919128418 50.521022796630845 L -24.982999801635742 55.789001464843736 L -18.881000518798828 49.68700027465819 L -17.25 48.05599975585936 L -10.836999893188477 41.64300155639648 L -17.25 35.222270965576165 L -18.881000518798828 33.58930587768554 L -24.94099998474121 27.521999359130852 L -30.75 33.30437850952148 L -39.124000549316406 41.63999938964843 L -30.75 50.018737792968736 z"
     fill="none"
     stroke="rgb(255,0,0)"
     stroke-width="0.001mm"
     id="path1"
     style="stroke-width:0.1;stroke-dasharray:none" />
  <metadata
     id="metadata1">
    <rdf:RDF>
      <cc:Work
         rdf:about="">
        <dc:title>svgOutput</dc:title>
      </cc:Work>
    </rdf:RDF>
  </metadata>
</svg>
