<?xml version="1.0" encoding="UTF-8" standalone="no"?>
<!-- Created with Inkscape (http://www.inkscape.org/) -->

<svg
   width="700mm"
   height="400mm"
   viewBox="0 0 700 400"
   version="1.1"
   id="svg1"
   inkscape:version="1.4.4 (dcaf3e7, 2026-05-05)"
   sodipodi:docname="BOITE_A_DECOUPER.svg"
   xmlns:inkscape="http://www.inkscape.org/namespaces/inkscape"
   xmlns:sodipodi="http://sodipodi.sourceforge.net/DTD/sodipodi-0.dtd"
   xmlns="http://www.w3.org/2000/svg"
   xmlns:svg="http://www.w3.org/2000/svg">
  <sodipodi:namedview
     id="namedview1"
     pagecolor="#ffffff"
     bordercolor="#000000"
     borderopacity="0.25"
     inkscape:showpageshadow="2"
     inkscape:pageopacity="0.0"
     inkscape:pagecheckerboard="0"
     inkscape:deskcolor="#d1d1d1"
     inkscape:document-units="mm"
     inkscape:zoom="0.61903384"
     inkscape:cx="985.40655"
     inkscape:cy="797.21005"
     inkscape:window-width="1920"
     inkscape:window-height="991"
     inkscape:window-x="-9"
     inkscape:window-y="-9"
     inkscape:window-maximized="1"
     inkscape:current-layer="layer1" />
  <defs
     id="defs1">
    <linearGradient
       id="swatch22"
       inkscape:swatch="solid">
      <stop
         style="stop-color:#000000;stop-opacity:1;"
         offset="0"
         id="stop22" />
    </linearGradient>
  </defs>
  <g
     inkscape:label="Calque 1"
     inkscape:groupmode="layer"
     id="layer1">
    <g
       transform="matrix(1,0,0,-1,106.44165,80.004007)"
       id="g10"
       style="stroke-width:0.1;stroke-dasharray:none;stroke:#ff0000;stroke-opacity:1">
      <path
         stroke="#ff0000"
         stroke-width="0.25"
         fill="none"
         d="m 87.75,78 h -13.5 v -3 h -13.5 v 3 h -13.5 v -3 h -13.5 v 3 H 20.25 V 75 H 6.75 v 3 h -13.5 v -3 h -13.5 v 3 h -13.5 v -3 h -13.5 v 3 h -13.5 v -3 h -13.5 v 3 h -13.5 V 75 H -100 V 60.75 h -3 v -13.5 h 3 v -13.5 h -3 v -13.5 h 3 V 6.75 h -3 v -13.5 h 3 v -13.5 h -3 v -13.5 h 3 v -13.5 h -3 v -13.5 h 3 V -75 h 12.25 v -3 h 13.5 v 3 h 13.5 v -3 h 13.5 v 3 h 13.5 v -3 h 13.5 v 3 h 13.5 v -3 h 13.5 v 3 h 13.5 v -3 h 13.5 v 3 h 13.5 v -3 h 13.5 v 3 h 13.5 v -3 h 13.5 v 3 H 100 v 14.25 h 3 v 13.5 h -3 v 13.5 h 3 v 13.5 h -3 v 13.5 h 3 v 13.5 h -3 v 13.5 h 3 v 13.5 h -3 v 13.5 h 3 v 13.5 h -3 V 75 H 87.75 Z"
         id="path9"
         style="stroke-width:0.1;stroke-dasharray:none;stroke:#ff0000;stroke-opacity:1" />
    </g>
    <g
       transform="matrix(1,0,0,-1,295.04555,36.573145)"
       id="g8"
       style="stroke:#ff0000;stroke-width:0.1;stroke-dasharray:none;stroke-opacity:1">
      <path
         stroke="#ff0000"
         stroke-width="0.25"
         fill="none"
         d="M 78,18 H 75 60.75 v -3 h -13.5 v 3 h -13.5 v -3 h -13.5 v 3 H 6.75 v -3 h -13.5 v 3 h -13.5 v -3 h -13.5 v 3 h -13.5 v -3 h -13.5 v 3 H -75 -78 V 15 6.75 h 3 v -13.5 h -3 V -15 -18 h 3 14.25 v 3 h 13.5 v -3 h 13.5 v 3 h 13.5 v -3 h 13.5 v 3 h 13.5 v -3 h 13.5 v 3 h 13.5 v -3 h 13.5 v 3 h 13.5 v -3 H 75 78 v 3 8.25 h -3 v 13.5 h 3 V 15 Z"
         id="path7"
         style="stroke:#ff0000;stroke-width:0.1;stroke-dasharray:none;stroke-opacity:1" />
    </g>
    <g
       transform="matrix(1,0,0,-1,295.9083,79.376038)"
       id="g6"
       style="stroke:#ff0000;stroke-width:0.1;stroke-dasharray:none;stroke-opacity:1">
      <path
         stroke="#ff0000"
         stroke-width="0.25"
         fill="none"
         d="M 78,18 H 75 60.75 v -3 h -13.5 v 3 h -13.5 v -3 h -13.5 v 3 H 6.75 v -3 h -13.5 v 3 h -13.5 v -3 h -13.5 v 3 h -13.5 v -3 h -13.5 v 3 H -75 -78 V 15 6.75 h 3 v -13.5 h -3 V -15 -18 h 3 14.25 v 3 h 13.5 v -3 h 13.5 v 3 h 13.5 v -3 h 13.5 v 3 h 13.5 v -3 h 13.5 v 3 h 13.5 v -3 h 13.5 v 3 h 13.5 v -3 H 75 78 v 3 8.25 h -3 v 13.5 h 3 V 15 Z"
         id="path5"
         style="stroke:#ff0000;stroke-width:0.1;stroke-dasharray:none;stroke-opacity:1" />
    </g>
    <g
       transform="matrix(0,-1,-1,0,236.71978,214.59859)"
       id="g4"
       style="stroke-width:0.1;stroke-dasharray:none">
      <path
         stroke="#ff0000"
         stroke-width="0.25"
         fill="none"
         d="M 100,18 H 87.75 v -3 h -13.5 v 3 h -13.5 v -3 h -13.5 v 3 h -13.5 v -3 h -13.5 v 3 H 6.75 v -3 h -13.5 v 3 h -13.5 v -3 h -13.5 v 3 h -13.5 v -3 h -13.5 v 3 h -13.5 v -3 h -13.5 v 3 H -100 V 15 6.75 h -3 v -13.5 h 3 V -15 -18 h 12.25 v 3 h 13.5 v -3 h 13.5 v 3 h 13.5 v -3 h 13.5 v 3 h 13.5 v -3 h 13.5 v 3 h 13.5 v -3 h 13.5 v 3 h 13.5 v -3 h 13.5 v 3 h 13.5 v -3 h 13.5 v 3 h 13.5 v -3 H 100 v 3 8.25 h 3 v 13.5 h -3 V 15 Z"
         id="path3"
         style="stroke-width:0.1;stroke-dasharray:none" />
    </g>
    <path
       style="stroke-width:0.1;stroke-dasharray:none;fill-opacity:1;stroke:#ff0000;stroke-opacity:1;fill:none"
       d="m 73.667982,269.16119 0.502,0.50228 5.265,5.26798 6.102,-6.102 1.631,-1.631 6.413,-6.413 -6.413,-6.42073 -1.631,-1.63296 -6.06,-6.06731 -5.809,5.78238 -8.374,8.33562 z"
       id="path21" />
    <path
       style="stroke-width:0.1;stroke-dasharray:none;fill-opacity:1;stroke:#ff0000;stroke-opacity:1;fill:none"
       d="m 60.167982,307.14545 h 13.5 0.502 v -14.996 h -0.502 -13.5 -0.993 v 14.996 h 0.993"
       id="path20" />
    <path
       style="stroke-width:0.1;stroke-dasharray:none;fill-opacity:1;stroke:#ff0000;stroke-opacity:1;fill:none"
       d="m 133.17577,260.78924 14.15081,14.1468 1.9e-4,2e-4 14.161,-14.153 -0.005,-0.005 -14.14979,-14.17879 -14.157,14.19"
       id="path19" />
    <path
       style="stroke-width:0.1;stroke-dasharray:none;fill-opacity:1;stroke:#ff0000;stroke-opacity:1;fill:none"
       d="m 116.19674,277.74827 14.16,14.16 14.158,-14.16 -7.9e-4,-7.9e-4 -14.13048,-14.15944 -0.0197,-0.0198 -14.167,14.18"
       id="path18" />
    <path
       style="stroke-width:0.1;stroke-dasharray:none;fill-opacity:1;stroke:#ff0000;stroke-opacity:1;fill:none"
       d="m 154.66774,189.17127 h 10.895 v -14.995 h -10.895 -4.1 v 14.995 h 4.1"
       id="path17" />
    <path
       style="stroke-width:0.1;stroke-dasharray:none;fill-opacity:1;stroke:#ff0000;stroke-opacity:1;fill:none"
       d="m 22.434041,259.60505 0.064,0.0659 0.102997,0.10608 0.172004,0.167 0.173699,0.158 0.0033,0.003 0.0434,0.037 0.139595,0.11899 0.188004,0.15001 0.192001,0.14399 0.196999,0.138 0.202003,0.131 0.205994,0.125 0.210007,0.119 0.214996,0.112 0.003,10e-4 0.215004,0.10356 0.223,0.099 0.225998,0.091 0.229004,0.084 0.233993,0.077 0.236,0.069 0.240006,0.062 0.241997,0.054 0.203003,0.038 0.043,0.008 0.248001,0.038 0.250999,0.029 0.252999,0.022 0.254997,0.013 0.258003,0.004 0.257996,-0.004 0.255005,-0.013 0.226997,-0.0197 0.027,-0.002 0.25,-0.029 0.249001,-0.038 0.245003,-0.046 0.242996,-0.054 0.238998,-0.062 0.237,-0.069 0.233002,-0.077 0.229004,-0.084 0.096,-0.0386 0.129997,-0.0523 0.223,-0.099 0.218002,-0.105 0.214997,-0.112 0.209999,-0.119 0.206001,-0.125 0.202004,-0.131 0.196998,-0.138 0.193001,-0.144 0.186996,-0.15 0.139594,-0.11896 0.0434,-0.037 0.0033,-0.003 0.173698,-0.158 0.173004,-0.167 0.167,-0.172 0.160995,-0.178 0.155999,-0.182 0.149002,-0.188 0.144005,-0.192 0.137992,-0.198 0.132004,-0.201 0.125,-0.206 0.119003,-0.211 0.112,-0.214 0.104996,-0.219 0.074,-0.16763 0.024,-0.0544 0.092,-0.226 0.084,-0.23 0.077,-0.233 0.069,-0.236 0.061,-0.24 0.04955,-0.223 0.0044,-0.02 0.046,-0.24501 0.038,-0.24799 0.03,-0.25101 0.021,-0.253 0.013,-0.256 0.005,-0.258 -0.005,-0.257 -0.013,-0.256 -3.28e-4,-0.004 -0.02067,-0.249 -0.03,-0.251 -0.038,-0.248 -0.046,-0.246 -0.054,-0.242 -0.061,-0.24 -0.069,-0.236 -0.077,-0.233 -0.03762,-0.103 -0.04638,-0.127 -0.092,-0.226 -0.024,-0.0544 -0.074,-0.16763 -0.104996,-0.219 -0.112,-0.214 -0.119003,-0.211 -0.125,-0.206 -0.132004,-0.201 -0.137992,-0.198 -0.144005,-0.192 -0.02536,-0.032 -0.123642,-0.156 -0.155999,-0.182 -0.160995,-0.178 -0.167,-0.172 -0.173004,-0.167 -0.177002,-0.161 -0.182999,-0.156 -0.186996,-0.15 -0.193001,-0.144 -0.196998,-0.138 -0.202004,-0.131 -0.206001,-0.125 -0.209999,-0.119 -0.132454,-0.069 -0.08254,-0.043 -0.218002,-0.106 -0.223,-0.098 -0.129997,-0.0523 -0.096,-0.0387 -0.229004,-0.084 -0.233002,-0.077 -0.237,-0.069 -0.238998,-0.062 -0.242996,-0.054 -0.245003,-0.046 -0.249001,-0.038 -0.25,-0.029 -0.027,-0.002 -0.226997,-0.0197 -0.255005,-0.013 -0.257996,-0.004 -0.258003,0.004 -0.254997,0.013 -0.252999,0.022 -0.250999,0.029 -0.248001,0.038 -0.043,0.008 -0.203003,0.038 -0.241997,0.054 -0.240006,0.062 -0.236,0.069 -0.233993,0.077 -0.229004,0.084 -0.225998,0.091 -0.223,0.098 -0.218002,0.106 -0.08254,0.043 -0.132454,0.069 -0.210007,0.119 -0.205994,0.125 -0.202003,0.131 -0.196999,0.138 -0.192001,0.144 -0.188004,0.15 -0.182998,0.156 -0.176995,0.161 -0.172004,0.167 -0.102997,0.10609 -0.064,0.0659 -0.162003,0.178 -0.154999,0.18199 -0.149993,0.18801 -0.144005,0.192 -0.138001,0.198 -0.131996,0.201 -0.125,0.206 -0.118004,0.211 -0.112999,0.214 -0.104995,0.219 -0.09801,0.222 -0.091,0.22599 -0.04694,0.12701 -0.03806,0.10299 -0.076,0.23301 -0.07,0.236 -0.061,0.24 -0.054,0.24199 -0.046,0.24601 -0.038,0.248 -0.03,0.251 -0.02067,0.249 -3.35e-4,0.004 -0.013,0.256 -0.004,0.257 0.004,0.258 0.013,0.256 0.021,0.253 0.03,0.251 0.038,0.248 0.046,0.245 0.0044,0.02 0.04955,0.223 0.061,0.24 0.07,0.236 0.076,0.233 0.085,0.23 0.091,0.226 0.09801,0.222 0.104995,0.219 0.112999,0.214 0.0028,0.005 0.115204,0.206 0.125,0.206 0.131996,0.201 0.138001,0.198 0.144005,0.192 0.149993,0.188 0.154999,0.182 0.162003,0.178"
       id="path16" />
    <path
       style="stroke-width:0.1;stroke-dasharray:none;fill-opacity:1;stroke:#ff0000;stroke-opacity:1;fill:none"
       d="m 75.466042,226.81805 h -1.798 -13.196999 v 14.995 h 13.196999 1.798 v -14.995"
       id="path15" />
    <path
       style="stroke-width:0.1;stroke-dasharray:none;fill-opacity:1;stroke:#ff0000;stroke-opacity:1;fill:none"
       d="m 100.53204,226.83005 h -13.363998 -1.631 v 14.983 0.012 h 1.631 13.363998 v -14.995"
       id="path14" />
    <path
       style="stroke-width:0.1;stroke-dasharray:none;fill-opacity:1;stroke:#ff0000;stroke-opacity:1;fill:none"
       d="m 33.167994,179.225 -12.050003,-0.011 v 13.42805 0.663 h 17.764 6.997002 v -14.069 l -6.997002,-0.006 -2,-0.002 -3.713949,-0.003"
       id="path13" />
    <path
       style="stroke-width:0.1;stroke-dasharray:none;fill-opacity:1;stroke:#ff0000;stroke-opacity:1;fill:none"
       d="m 78.866442,178.01687 -0.048,-0.0123 -0.026,-0.007 -0.098,-0.021 -0.099,-0.018 -0.099,-0.015 -0.101,-0.012 -0.102,-0.009 -0.104,-0.005 -0.103,-0.001 -0.105,0.001 -0.103,0.005 -0.036,0.003 -0.048,0.004 -0.019,0.002 -0.101,0.012 -0.101,0.015 -0.1,0.018 -0.099,0.021 -0.098,0.025 -0.097,0.027 -0.096,0.031 -0.094,0.033 -0.093,0.036 -0.0734,0.032 -6.3e-4,2.8e-4 -0.004,0.002 -0.013,0.006 -0.035,0.0159 -0.055,0.0251 -0.089,0.045 -0.087,0.047 -0.085,0.05 -0.084,0.052 -0.081,0.055 -0.08,0.058 -0.013,0.01 -0.065,0.049 -0.0215,0.0175 -0.0545,0.0445 -0.0398,0.035 -0.0342,0.03 -0.072,0.066 -0.054,0.0533 -0.016,0.0157 -0.045,0.048 -0.022,0.023 -0.026,0.0288 -0.04,0.0442 -0.062,0.075 -0.061,0.077 -0.0373,0.051 -0.0197,0.027 -0.0424,0.0613 -0.0136,0.0197 -0.052,0.082 -0.05,0.085 -0.048,0.086 -0.003,0.005 -0.041,0.082 -0.041,0.089 -0.039,0.091 -0.036,0.092 -0.032,0.094 -0.029,0.095 -0.026,0.096 -0.005,0.019 -0.0185,0.078 -0.02,0.099 -0.016,0.10001 -0.011,0.089 -0.002,0.012 -0.001,0.0146 -0.008,0.0874 -0.005,0.103 -0.002,0.104 0.002,0.104 0.005,0.104 0.009,0.102 0.003,0.027 0.01,0.075 0.016,0.10099 0.02,0.10001 0.021,0.09 0.002,0.009 8.3e-4,0.003 0.0252,0.0949 0.029,0.097 0.032,0.095 0.036,0.095 0.038,0.093 0.042,0.091 0.0391,0.08 0.005,0.01 0.048,0.089 0.049,0.087 0.053,0.085 0.0534,0.0816 0.002,0.002 0.008,0.011 0.05,0.07 0.061,0.08 0.062,0.078 0.04,0.0468 0.0244,0.0286 5.5e-4,6.4e-4 0.023,0.025 0.045,0.049 0.07,0.072 0.071,0.07 0.074,0.067 0.076,0.065 0.007,0.006 0.0706,0.057 0.08,0.06 0.082,0.058 0.084,0.056 0.085,0.052 0.087,0.05 0.088,0.047 0.056,0.0277 0.035,0.0173 0.013,0.006 0.078,0.035 0.093,0.039 0.094,0.035 0.096,0.033 0.097,0.029 0.098,0.026 0.099,0.023 0.1,0.019 0.1,0.017 0.102,0.012 0.019,0.002 0.048,0.004 0.036,0.003 0.103,0.006 0.105,0.002 0.104,-0.002 0.103,-0.006 0.102,-0.009 0.101,-0.012 0.1,-0.017 0.098,-0.019 0.098,-0.023 0.026,-0.007 0.048,-0.013 0.022,-0.006 0.095,-0.029 0.094,-0.033 0.092,-0.035 0.09,-0.039 0.09,-0.041 0.087,-0.045 0.086,-0.047 0.084,-0.05 0.083,-0.053 0.08,-0.055 0.073,-0.0536 0.006,-0.004 0.042,-0.033 0.035,-0.027 0.0679,-0.057 0.007,-0.006 0.073,-0.065 0.071,-0.067 0.068,-0.07 0.067,-0.072 0.064,-0.074 0.062,-0.076 0.06,-0.078 0.003,-0.004 0.0541,-0.076 0.047,-0.07 0.008,-0.012 0.053,-0.083 0.049,-0.086 0.048,-0.086 0.044,-0.089 0.005,-0.01 0.0373,-0.08 0.039,-0.092 0.036,-0.093 0.034,-0.094 0.03,-0.095 0.028,-0.097 0.024,-0.098 0.022,-0.099 0.018,-0.1 0.015,-0.101 0.009,-0.075 0.003,-0.027 0.008,-0.102 0.005,-0.104 0.002,-0.104 -0.002,-0.104 -0.005,-0.103 -0.007,-0.0828 -0.002,-0.0192 -0.002,-0.012 -0.01,-0.089 -0.015,-0.1 -0.018,-0.099 -0.0177,-0.078 -0.004,-0.019 -0.024,-0.096 -0.028,-0.095 -0.03,-0.094 -0.034,-0.092 -0.036,-0.091 -0.039,-0.089 -0.04,-0.082 -0.002,-0.005 -0.009,-0.0184 -0.0346,-0.0676 -0.048,-0.084 -0.049,-0.083 -0.053,-0.08 -0.0195,-0.028 -0.0355,-0.051 -0.057,-0.077 -0.06,-0.075 -0.062,-0.073 -0.064,-0.071 -0.067,-0.069 -0.068,-0.066 -0.071,-0.065 -0.073,-0.062 -0.062,-0.049 -0.013,-0.01 -0.035,-0.026 -0.042,-0.032 -0.006,-0.004 -0.073,-0.0508 -0.081,-0.052 -0.082,-0.05 -0.084,-0.047 -0.086,-0.045 -0.088,-0.041 -0.0178,-0.008 -0.0712,-0.032 -0.09,-0.036 -0.093,-0.033 -0.093,-0.031 -0.095,-0.027 -0.022,-0.006"
       id="path12" />
    <path
       style="stroke-width:0.1;stroke-dasharray:none;fill-opacity:1;stroke:#ff0000;stroke-opacity:1;fill:none"
       d="m 150.12345,277.78488 14.185,14.125 5.646,-5.646 8.519,-8.519 -0.014,-0.014 -8.505,-8.505 -5.61021,-5.61021 -0.0358,-0.0358 -14.185,14.205"
       id="path11" />
    <path
       style="stroke-width:0.1;stroke-dasharray:none;fill-opacity:1;stroke:#ff0000;stroke-opacity:1;fill:none"
       d="m 104.41845,255.59436 -3.75,3.7569 -1.422998,1.42562 1.422998,1.42441 3.75,3.75371 8.9653,8.97418 0.003,0.003 14.145,-14.142 -0.008,-0.008 -14.1543,-14.1553 -8.951,8.96748"
       id="path10" />
    <path
       style="stroke-width:0.1;stroke-dasharray:none;fill-opacity:1;stroke:#ff0000;stroke-opacity:1;fill:none"
       d="m 110.56135,277.75278 -6.143,-6.14778 -3.75,-3.75292 -4.244898,-4.2482 -0.003,-0.003 -9.252,9.25528 -1.631,1.63158 -3.231,3.23214 3.231,3.24955 1.631,1.64037 9.245,9.29808 4.254998,-4.2571 3.75,-3.75186 1.33179,-1.33244 4.81121,-4.8136"
       id="path8" />
    <path
       style="stroke-width:0.1;stroke-dasharray:none;fill-opacity:1;stroke:#ff0000;stroke-opacity:1;fill:none"
       d="m 181.25435,246.59978 -11.3,11.37055 -2.795,2.81245 2.795,2.8065 11.3,11.3465 0.414,-0.414 13.5,-13.5 0.269,-0.269 -0.269,-0.26843 -13.5,-13.47145 -0.414,-0.41312"
       id="path6" />
    <path
       style="stroke-width:0.1;stroke-dasharray:none;fill-opacity:1;stroke:#ff0000;stroke-opacity:1;fill:none"
       d="m 32.718355,307.57217 -0.02,-0.05 -0.068,-0.14899 -0.072,-0.14601 -0.01131,-0.021 -0.06569,-0.122 -0.081,-0.14 -0.086,-0.138 -0.08325,-0.12395 -0.0068,-0.0101 -0.089,-0.124 -0.005,-0.007 -0.098,-0.129 -0.102996,-0.125 -0.09199,-0.105 -0.01402,-0.016 -0.110001,-0.119 -0.113946,-0.11399 -0.117996,-0.111 -0.121003,-0.108 -0.124,-0.103 -0.127999,-0.1 -0.131004,-0.096 -0.05059,-0.0344 -0.0834,-0.0566 -0.105003,-0.067 -0.032,-0.021 -0.016,-0.01 -0.11557,-0.0685 -0.0084,-0.005 -0.143006,-0.079 -0.144996,-0.075 -0.148003,-0.07 -0.151001,-0.065 -0.127495,-0.05 -0.02551,-0.01 -0.111999,-0.04 -0.044,-0.016 -0.156998,-0.051 -0.160003,-0.046 -0.160996,-0.041 -0.157692,-0.0346 -0.0063,-0.001 -0.165001,-0.03 -0.167,-0.025 -0.006,-10e-4 -0.048,-0.006 -0.114998,-0.0134 -0.169998,-0.014 -0.172005,-0.009 -0.172996,-0.002 -0.173004,0.002 -0.170998,0.009 -0.168999,0.014 -0.167999,0.02 -0.166,0.025 -0.165001,0.031 -0.162003,0.036 -0.159996,0.041 -0.036,0.01 -0.048,0.0142 -0.07401,0.0218 -0.155998,0.051 -0.153,0.056 -0.151001,0.06 -0.149002,0.066 -0.145996,0.07 -0.142998,0.074 -0.139999,0.079 -0.0067,0.004 -0.131347,0.079 -0.134003,0.088 -0.131996,0.092 -0.128006,0.095 -0.125,0.1 -0.06405,0.0546 -0.05795,0.0494 -0.109001,0.099 -0.009,0.008 -0.039,0.0376 -0.076,0.0734 -0.111,0.115 -0.107002,0.118 -0.103997,0.122 -0.100006,0.125 -0.09499,0.129 -0.092,0.131 -0.088,0.134 -0.083,0.138 -0.079,0.14 -0.0625,0.12 -0.0125,0.024 -0.07,0.14601 -0.05699,0.12977 -0.008,0.0182 -0.019,0.048 -0.042,0.10299 -0.056,0.154 -0.05099,0.15501 -0.04601,0.158 -0.041,0.161 -0.036,0.162 -0.03,0.164 -0.026,0.167 -0.02001,0.168 -0.014,0.16899 -0.0063,0.12101 -0.0027,0.051 -0.003,0.17199 0.002,0.143 9.99e-4,0.03 0.008,0.172 0.014,0.17 0.02,0.169 0.025,0.167 0.03,0.166 0.036,0.164 0.041,0.161 0.04601,0.16 0.04999,0.158 0.056,0.155 0.004,0.01 0.05701,0.143 0.065,0.151 0.034,0.072 0.036,0.076 0.074,0.146 0.079,0.143 0.083,0.14 0.08701,0.137 0.09199,0.135 0.095,0.131 0.1,0.127 0.103005,0.125 0.107994,0.121 0.111,0.11801 0.081,0.081 0.047,0.047 0.0016,8e-4 3.89e-4,2e-4 -9.99e-4,-10e-4 -0.016,-0.021 0.0022,-7.5e-4 7.55e-4,-2.5e-4 0.015,0.014 0.023,0.024 0.027,0.027 0.025,0.026 0.019,0.019 0.007,0.008 0.0081,0.007 0.05914,0.0519 0.05473,0.048 0.125,0.102 0.127998,0.099 0.131005,0.094 0.034,0.023 0.100998,0.067 0.137001,0.086 0.14,0.082 0.142997,0.076 0.146004,0.073 0.148003,0.067 0.151001,0.063 0.153,0.058 0.155998,0.053 0.082,0.0246 0.048,0.0144 0.028,0.008 0.160004,0.043 0.161994,0.037 0.164002,0.031 0.166,0.026 0.167,0.021 0.169998,0.014 0.171006,0.009 0.171997,0.003 0.173004,-0.003 0.170997,-0.009 0.169999,-0.015 0.125999,-0.0149 0.043,-0.005 0.005,-10e-4 0.161995,-0.026 0.165001,-0.031 0.164001,-0.038 0.05257,-0.0137 0.108429,-0.0283 0.159996,-0.048 0.157997,-0.053 0.155006,-0.058 0.153,-0.063 0.150993,-0.068 0.148003,-0.072 0.146004,-0.077 0.142997,-0.082 0.134003,-0.0823 0.006,-0.004 0.097,-0.064 0.04,-0.026 0.134003,-0.095 0.131996,-0.099 0.127998,-0.102 0.051,-0.044 0.07301,-0.063 0.122001,-0.111 0.116997,-0.11399 0.115006,-0.117 0.11,-0.122 0.106995,-0.124 0.006,-0.007 0.096,-0.12101 0.099,-0.132 0.08011,-0.113 0.01489,-0.021 0.09,-0.137 0.086,-0.14 0.082,-0.143 0.07639,-0.14485 6.1e-4,-0.001 0.035,-0.071 0.038,-0.077 0.067,-0.151 0.045,-0.10928 0.01183,-0.0287 0.0036,-0.009 0.0026,-0.006 0.03,-0.081 0.02801,-0.075 0.05299,-0.157 0.048,-0.16 0.043,-0.162 0.037,-0.164 0.032,-0.165 0.026,-0.167 0.021,-0.169 0.015,-0.17 0.0081,-0.15453 8.69e-4,-0.0165 v -0.026 l 0.003,-0.147 -0.002,-0.173 -0.0024,-0.046 -0.0066,-0.125 -0.015,-0.169 -0.02,-0.168 -0.026,-0.166 -0.032,-0.164 -0.037,-0.162 -0.042,-0.16 -0.047,-0.158 -0.053,-0.156 -0.03201,-0.084 -0.02599,-0.069 -0.0034,-0.008 -0.03859,-0.0928"
       id="path4" />
    <path
       style="stroke-width:0.1;stroke-dasharray:none;fill-opacity:1;stroke:#ff0000;stroke-opacity:1;fill:none"
       d="m 119.84274,178.54812 -0.065,-0.0465 -0.009,-0.006 -0.082,-0.054 -0.083,-0.052 -0.086,-0.05 -0.087,-0.047 -0.088,-0.044 -0.09,-0.042 -0.0566,-0.024 -0.0354,-0.015 -0.093,-0.036 -0.094,-0.033 -0.096,-0.03 -0.076,-0.021 -0.02,-0.006 -0.0151,-0.004 -0.0129,-0.003 -0.07,-0.0171 -0.099,-0.022 -0.1,-0.018 -0.101,-0.015 -0.102,-0.011 -0.103,-0.009 -0.103,-0.005 -0.104,-0.002 -0.104,0.002 -0.09,0.004 -0.013,0.001 -0.035,0.003 -0.067,0.006 -0.101,0.011 -0.1,0.015 -0.099,0.018 -0.097,0.022 -0.096,0.024 -0.095,0.027 -0.094,0.03 -0.092,0.034 -0.091,0.036 -0.0324,0.014 -0.0116,0.005 -0.045,0.019 -0.003,10e-4 -0.084,0.0405 -0.086,0.044 -0.085,0.047 -0.082,0.05 -0.0632,0.0406 -0.0178,0.0114 -0.079,0.054 -0.069,0.053 -0.007,0.005 -0.075,0.059 -0.073,0.062 -0.0222,0.02 -0.0488,0.044 -0.0613,0.0587 -0.008,0.007 -0.066,0.069 -0.049,0.054 -0.016,0.017 -0.032,0.0372 -0.03,0.0348 -0.06,0.075 -0.057,0.077 -0.0265,0.038 -0.0286,0.041 -0.052,0.08 -0.05,0.083 -0.047,0.084 -0.041,0.078 -0.004,0.008 -0.042,0.088 -0.039,0.089 -0.036,0.091 -0.033,0.092 -0.031,0.094 -0.027,0.095 -0.025,0.097 -8.6e-4,0.004 -0.0201,0.094 -0.018,0.099 -0.015,0.1 -0.009,0.073 -0.003,0.029 -0.009,0.102 -0.005,0.104 -0.002,0.105 0.002,0.105 0.005,0.104 0.009,0.104 5.3e-4,0.005 0.0105,0.099 0.016,0.102 0.018,0.102 0.013,0.063 0.008,0.038 0.025,0.1 0.027,0.099 0.031,0.097 0.033,0.097 0.036,0.095 0.039,0.094 0.0172,0.038 0.0248,0.055 0.045,0.091 0.047,0.09 0.05,0.088 0.025,0.042 0.027,0.045 0.055,0.084 0.057,0.083 0.06,0.081 0.062,0.079 0.064,0.077 0.067,0.075 0.069,0.072 0.0611,0.062 0.009,0.009 0.073,0.068 0.075,0.065 0.077,0.063 0.079,0.061 0.081,0.058 0.082,0.055 0.084,0.052 0.086,0.05 0.085,0.0454 0.003,0.002 0.045,0.022 0.044,0.021 0.091,0.041 0.092,0.037 0.093,0.034 0.095,0.031 0.096,0.028 0.098,0.024 0.099,0.021 0.1,0.017 0.101,0.013 0.067,0.007 0.035,0.003 0.013,0.001 0.09,0.004 0.104,0.002 0.104,-0.002 0.103,-0.005 0.103,-0.01 0.102,-0.013 0.101,-0.017 0.1,-0.021 0.099,-0.024 0.07,-0.02 0.028,-0.008 0.02,-0.006 0.077,-0.025 0.095,-0.034 0.095,-0.037 0.093,-0.041 0.091,-0.043 0.09,-0.047 0.089,-0.05 0.087,-0.052 0.085,-0.055 0.084,-0.058 0.081,-0.061 0.009,-0.007 0.048,-0.0379 0.023,-0.018 0.078,-0.065 0.076,-0.068 0.01,-0.009 0.0645,-0.061 0.072,-0.073 0.07,-0.075 0.067,-0.077 0.065,-0.079 0.063,-0.081 0.06,-0.082 0.058,-0.085 0.029,-0.045 0.026,-0.041 0.053,-0.089 0.05,-0.089 0.047,-0.091 0.0271,-0.056 0.0179,-0.037 0.02,-0.0459 0.021,-0.0481 0.027,-0.066 0.012,-0.03 0.035,-0.096 0.033,-0.098 0.029,-0.099 0.026,-0.1 0.009,-0.038 0.014,-0.063 0.019,-0.102 0.016,-0.102 0.0125,-0.099 5.1e-4,-0.004 0.009,-0.10399 0.006,-0.10501 10e-4,-0.105 -10e-4,-0.105 -0.006,-0.104 -0.008,-0.0899 -10e-4,-0.0121 -0.004,-0.029 -0.009,-0.073 -0.016,-0.1 -0.019,-0.1 -0.0218,-0.093 -0.001,-0.005 -0.026,-0.096 -0.03,-0.096 -0.032,-0.093 -0.0333,-0.0859 -0.003,-0.007 -0.011,-0.026 -0.027,-0.065 -0.021,-0.0445 -0.021,-0.0445 -0.0426,-0.0853 -0.001,-0.003 -0.004,-0.007 -0.043,-0.078 -0.05,-0.085 -0.053,-0.082 -0.055,-0.081 -0.0294,-0.04 -0.0286,-0.039 -0.06,-0.076 -0.063,-0.075 -0.065,-0.073 -0.068,-0.071 -0.069,-0.068 -0.072,-0.066 -0.074,-0.064 -0.076,-0.062 -0.078,-0.06 -0.006,-0.004"
       id="path2" />
    <path
       style="stroke-width:0.1;stroke-dasharray:none;fill-opacity:1;stroke:#ff0000;stroke-opacity:1;fill:none"
       d="m 186.38574,173.79827 -0.048,-0.017 -0.13,-0.046 -0.248,-0.077 -0.251,-0.068 -0.25499,-0.06 -0.25701,-0.052 -0.261,-0.042 -0.264,-0.033 -0.267,-0.024 -0.067,-0.004 -0.048,-0.003 -0.155,-0.008 -0.272,-0.004 -0.273,0.004 -0.272,0.015 -0.27,0.024 -0.268,0.033 -0.266,0.042 -0.224,0.043 -0.04,0.008 -0.008,0.002 -0.25399,0.0582 -0.25901,0.069 -0.25699,0.077 -0.254,0.085 -0.25,0.094 -0.248,0.101 -0.15894,0.071 -0.0851,0.038 -0.234,0.114 -0.006,0.003 -0.237,0.124 -0.153,0.087 -0.079,0.045 -0.229,0.139 -0.22399,0.145 -0.21901,0.153 -0.215,0.158 -0.209,0.166 -0.205,0.172 -0.199,0.177 -0.121,0.11477 -0.073,0.0692 -0.188,0.19 -0.182,0.195 -0.15123,0.17271 -0.0248,0.0283 -0.101,0.123 -0.069,0.083 -0.163,0.211 -0.157,0.216 -0.15,0.22 -0.14301,0.226 -0.13499,0.23 -0.12901,0.234 -0.11999,0.238 -0.0112,0.024 -0.004,0.008 -0.0979,0.2106 -0.063,0.147 -0.038,0.09 -0.004,0.009 -0.097,0.249 -0.089,0.254 -0.08,0.256 -0.071,0.25999 -0.062,0.26201 -0.054,0.26599 -0.006,0.036 -0.0381,0.232 -0.017,0.134 -0.017,0.136 -0.025,0.273 -0.015,0.275 -0.005,0.277 0.005,0.27601 0.015,0.27399 0.0157,0.17101 0.009,0.10099 0.034,0.265 v 0.004 l 0.045,0.266 0.053,0.262 0.062,0.26 0.072,0.256 0.08,0.253 0.088,0.249 0.0521,0.132 0.045,0.114 0.004,0.009 0.101,0.232 0.033,0.0696 0.08,0.16843 0.121,0.233 0.128,0.229 0.136,0.22501 0.143,0.21899 0.149,0.215 0.157,0.21001 0.0987,0.12399 0.0653,0.082 0.169,0.199 0.077,0.085 0.10001,0.11 0.18199,0.189 0.188,0.183 0.072,0.0664 0.121,0.1116 0.20001,0.171 0.20399,0.166 0.21,0.159 0.215,0.153 0.21901,0.146 0.224,0.14 0.14914,0.087 0.0789,0.046 0.233,0.126 0.236,0.119 0.006,0.003 0.235,0.109 0.244,0.104 0.247,0.097 0.251,0.089 0.254,0.082 0.256,0.073 0.259,0.065 0.254,0.0562 0.008,0.002 0.04,0.007 0.224,0.041 0.26699,0.04 0.268,0.032 0.27001,0.023 0.27099,0.013 0.27301,0.005 0.272,-0.005 0.155,-0.008 0.048,-0.002 0.067,-0.003 0.266,-0.023 0.264,-0.032 0.261,-0.04 0.258,-0.049 0.254,-0.057 0.252,-0.065 0.247,-0.073 0.131,-0.0439 0.048,-0.0161 0.065,-0.022 0.24,-0.089 0.236,-0.097 0.232,-0.104 0.228,-0.112 0.223,-0.119 0.219,-0.126 0.074,-0.046 0.13999,-0.087 0.069,-0.046 0.14099,-0.094 0.181,-0.13 0.023,-0.016 0.2,-0.153 0.194,-0.16 0.18901,-0.165 0.18399,-0.172 0.178,-0.178 0.173,-0.183 0.14462,-0.16466 0.0214,-0.0243 0.09,-0.109 0.071,-0.085 0.154,-0.2 0.0589,-0.081 0.0901,-0.12399 0.142,-0.21001 0.087,-0.13855 0.048,-0.0764 0.129,-0.22 0.122,-0.225 0.0661,-0.13168 0.0489,-0.0973 0.108,-0.233 0.096,-0.226 0.005,-0.011 0.094,-0.242 0.0397,-0.113 0.0463,-0.132 0.078,-0.249 0.071,-0.253 0.063,-0.256 0.056,-0.26 0.046,-0.263 0.0373,-0.25416 0.002,-0.0118 v -0.003 l 0.031,-0.265 0.008,-0.10099 0.0132,-0.17101 0.014,-0.27399 0.004,-0.276 -0.004,-0.27701 -0.014,-0.275 -0.0193,-0.25083 -0.002,-0.0222 -0.016,-0.136 -0.015,-0.134 -0.0329,-0.232 -0.005,-0.036 -0.047,-0.265 -0.055,-0.263 -0.064,-0.259 -0.07,-0.257 -0.079,-0.253 -0.0833,-0.24227 -0.003,-0.008 -0.038,-0.099 -0.056,-0.14699 -0.0914,-0.219 -0.01,-0.023 -0.108,-0.238 -0.115,-0.234 -0.122,-0.23 -0.129,-0.226 -0.048,-0.0786 -0.087,-0.14242 -0.142,-0.216 -0.148,-0.211 -0.062,-0.083 -0.093,-0.123 -0.16,-0.2 -0.0366,-0.043 -0.13037,-0.153 -0.17199,-0.189 -0.178,-0.184 -0.184,-0.178 -0.18901,-0.172 -0.195,-0.165 -0.19899,-0.159 -0.024,-0.018 -0.181,-0.134 -0.209,-0.146 -0.214,-0.139 -0.075,-0.045 -0.144,-0.086 -0.22399,-0.124 -0.22701,-0.117 -0.083,-0.039 -0.14899,-0.07 -0.236,-0.102 -0.24083,-0.0929 -1.7e-4,-7e-5 -0.065,-0.023"
       id="path1-8" />
    <path
       style="stroke-width:0.1;stroke-dasharray:none;stroke:#ff0000;stroke-opacity:1;fill:none"
       d="m 210.417,192.64209 h -3 v 13.5 h 3 v 13 0.5 h -3 v 13.5 h 3 v 13.5 h -3 v 13.5 h 3 v 13.5 h -3 v 13.5 h 3 v 13.5 h -3 v 14.25 h -12.25 v 3 h -13.5 v -3 h -11.714 -1.786 v 3 h -13.5 v -3 h -13.342 -0.158 v 3 h -13.5 v -3 h -13.5 v 3 h -9.75 -3.75 v -3 H 87.167002 v 3 h -1.631 -11.367 -0.502 v -3 h -13.5 v 3 h -0.993 -12.507 v -3 h -7.785263 -5.713997 v 2.554 0.446 h -13.5 v -0.446 -2.554 H 7.4177423 v -13.83 -0.42 h -1.304001 -1.695999 v -13.5 h 1.695999 1.304001 v -2.464 -11.036 h -3 v -13.5 h 3 v -13.5 h -3 v -13.5 h 3 v -13.5 h -3 v -0.5 -13 h 3 v -13.5 h -3 v -13.44287 -0.0571 h 3 v -14.25 H 19.667742 v -3 h 13.5 v 3 h 5.713997 7.786003 v -3 h 13.5 v 3 h 11.482 2.018 v -3 h 13.5 v 3 h 0.866 12.633998 v -3 h 3.75 9.75 v 3 h 6.634 6.866 v -3 h 9.518 3.982 v 3 h 13.5 v -3 h 13.5 v 3 h 1.786 11.714 v -3 h 4.67 8.83 v 3 h 7.554 4.696 v 14.25 h 3 v 7.232 6.268"
       id="path22" />
    <path
       style="fill:none;stroke:#ff0000;stroke-width:0.1;stroke-dasharray:none;stroke-opacity:1"
       d="m 277.63098,287.67169 v 10.688 0.317 h 7.005 v -0.317 -10.688 z"
       id="path1" />
    <path
       style="fill:none;stroke:#ff0000;stroke-width:0.1;stroke-dasharray:none;stroke-opacity:1"
       d="m 272.03598,274.4708 -0.303,-0.26605 -0.066,-0.058 -0.408,-0.273 -0.18249,-0.09 -0.25751,-0.127 -0.465,-0.158 -0.481,-0.095 -0.49,-0.032 -0.49,0.032 -0.481,0.095 -0.465,0.158 -0.25751,0.127 -0.18249,0.09 -0.408,0.273 -0.369,0.324 -0.324,0.369 -0.273,0.408 -0.11146,0.226 -0.10554,0.214 -0.158,0.465 -0.095,0.481 -0.033,0.49 0.033,0.49 0.0525,0.266 0.0425,0.215 0.158,0.465 0.217,0.44 0.273,0.408 0.324,0.369 0.369,0.324 0.408,0.273 0.13,0.0641 0.31,0.15288 0.465,0.15801 0.481,0.095 0.49,0.033 0.49,-0.033 0.481,-0.095 0.465,-0.15801 0.44,-0.21699 0.408,-0.273 0.066,-0.058 0.303,-0.26605 0.324,-0.369 0.273,-0.408 0.217,-0.44 0.158,-0.465 0.095,-0.481 0.033,-0.49 -0.033,-0.49 -0.095,-0.481 -0.158,-0.465 -0.10554,-0.214 -0.11146,-0.226 -0.273,-0.408 -0.324,-0.369"
       id="path1-88" />
    <path
       style="fill:none;stroke:#ff0000;stroke-width:0.1;stroke-dasharray:none;stroke-opacity:1"
       d="m 261.63298,114.72379 h 3 8.25 v -3 h 13.5 v 3 h 8.25 3 v 12.25 h -3 v 13.5 h 3 v 13.5 h -3 v 13.314 0.186 h 3 v 13.5 h -3 v 13.50001 h 3 v 5.582 7.918 h -3 v 8.466 5.034 h 3 v 11.35 2.15 h -3 v 13.5 h 3 v 13.5 h -3 v 13.5 h 3 v 13.5 h -3 v 9.386 0.317 3.797 h 3 v 12.25 h -11.25 v 3 h -13.5 v -3 h -11.25 v -12.25 h 3 v -3.797 -0.317 -9.386 h -3 v -13.5 h 3 v -2.102 -11.398 h -3 v -13.5 h 3 v -13.5 h -3 v -2.15 -11.35 h 3 v -13.5 h -3 v -7.918 -5.582 h 3 v -13.50001 h -3 v -13.5 h 3 v -0.186 -13.314 h -3 v -13.5 h 3 v -13.5 h -3 v -12.25"
       id="path23" />
  </g>
</svg>
