<?xml version="1.0" encoding="UTF-8" standalone="no"?>
<!-- Created with Inkscape (http://www.inkscape.org/) -->

<svg
   width="210mm"
   height="297mm"
   viewBox="0 0 210 297"
   version="1.1"
   id="svg1"
   inkscape:version="1.4.4 (dcaf3e7, 2026-05-05)"
   sodipodi:docname="boite_bottom.svg"
   xmlns:inkscape="http://www.inkscape.org/namespaces/inkscape"
   xmlns:sodipodi="http://sodipodi.sourceforge.net/DTD/sodipodi-0.dtd"
   xmlns="http://www.w3.org/2000/svg"
   xmlns:svg="http://www.w3.org/2000/svg">
  <sodipodi:namedview
     id="namedview1"
     pagecolor="#ffffff"
     bordercolor="#000000"
     borderopacity="0.25"
     inkscape:showpageshadow="2"
     inkscape:pageopacity="0.0"
     inkscape:pagecheckerboard="0"
     inkscape:deskcolor="#d1d1d1"
     inkscape:document-units="mm"
     inkscape:zoom="0.97386897"
     inkscape:cx="464.12815"
     inkscape:cy="315.7509"
     inkscape:window-width="1920"
     inkscape:window-height="991"
     inkscape:window-x="-9"
     inkscape:window-y="-9"
     inkscape:window-maximized="1"
     inkscape:current-layer="layer1" />
  <defs
     id="defs1" />
  <g
     inkscape:label="Calque 1"
     inkscape:groupmode="layer"
     id="layer1">
    <g
       transform="matrix(1,0,0,-1,106.54139,89.860985)"
       id="g10">
      <path
         stroke="#ff0000"
         stroke-width="0.25"
         fill="none"
         d="m 87.75,78 h -13.5 v -3 h -13.5 v 3 h -13.5 v -3 h -13.5 v 3 H 20.25 V 75 H 6.75 v 3 h -13.5 v -3 h -13.5 v 3 h -13.5 v -3 h -13.5 v 3 h -13.5 v -3 h -13.5 v 3 h -13.5 V 75 H -100 V 60.75 h -3 v -13.5 h 3 v -13.5 h -3 v -13.5 h 3 V 6.75 h -3 v -13.5 h 3 v -13.5 h -3 v -13.5 h 3 v -13.5 h -3 v -13.5 h 3 V -75 h 12.25 v -3 h 13.5 v 3 h 13.5 v -3 h 13.5 v 3 h 13.5 v -3 h 13.5 v 3 h 13.5 v -3 h 13.5 v 3 h 13.5 v -3 h 13.5 v 3 h 13.5 v -3 h 13.5 v 3 h 13.5 v -3 h 13.5 v 3 H 100 v 14.25 h 3 v 13.5 h -3 v 13.5 h 3 v 13.5 h -3 v 13.5 h 3 v 13.5 h -3 v 13.5 h 3 v 13.5 h -3 v 13.5 h 3 v 13.5 h -3 V 75 H 87.75 Z"
         id="path9" />
    </g>
  </g>
</svg>
